<svg width="301" height="286" viewBox="0 0 301 286" fill="none" xmlns="http://www.w3.org/2000/svg">
<path d="M254.247 285.5H40.2747L61.672 256.081H232.85L254.247 285.5Z" fill="#263238" stroke="#263238" stroke-linecap="round" stroke-linejoin="round"/>
<path d="M261.678 245.981C261.678 245.981 240.031 214.425 243.256 207.183C246.48 199.94 257.911 212.359 257.911 212.359C257.911 212.359 241.13 169.94 252.496 160.624C263.861 151.308 267.65 198.91 267.65 198.91C267.65 198.91 277.909 171.488 286.05 181.833C294.191 192.179 273.593 213.907 273.593 213.907C273.593 213.907 287.662 214.425 283.852 223.223C280.041 232.021 269.782 241.33 269.782 241.33L261.678 245.981Z" fill="#74C69D"/>
<path d="M255.713 238.738C255.713 238.738 242.728 221.15 249.22 217.528C255.713 213.907 258.959 224.771 258.959 224.771C258.959 224.771 259.501 177.182 269.79 180.804C280.078 184.425 276.282 213.389 276.282 213.389C276.282 213.389 289.267 205.116 288.739 217.01C288.212 228.904 270.874 239.27 270.874 239.27" stroke="#263238" stroke-linecap="round" stroke-linejoin="round"/>
<path d="M267.628 239.775L256.262 227.874" stroke="#263238" stroke-linecap="round" stroke-linejoin="round"/>
<path d="M268.17 245.462L267.628 215.98" stroke="#263238" stroke-linecap="round" stroke-linejoin="round"/>
<path d="M268.712 235.635L278.993 222.705" stroke="#263238" stroke-linecap="round" stroke-linejoin="round"/>
<path d="M277.909 236.672H249.228L252.093 260.984H275.044L277.909 236.672Z" fill="#263238" stroke="#263238" stroke-linecap="round" stroke-linejoin="round"/>
<path d="M31.584 245.981C31.584 245.981 9.93756 214.425 13.1618 207.183C16.386 199.94 27.8175 212.359 27.8175 212.359C27.8175 212.359 11.0147 169.926 22.3802 160.624C33.7457 151.322 37.5341 198.91 37.5341 198.91C37.5341 198.91 47.7931 171.488 55.9343 181.833C64.0755 192.179 43.477 213.907 43.477 213.907C43.477 213.907 57.5464 214.425 53.736 223.223C49.9255 232.021 39.6665 241.33 39.6665 241.33L31.584 245.981Z" fill="#74C69D"/>
<path d="M27.1946 239.13C27.1946 239.13 13.7407 227.047 13.3303 221.619C12.92 216.19 21.8965 222.789 25.5605 225.121C29.2244 227.454 16.1882 209.921 16.5912 197.061C16.9942 184.201 24.3367 189.272 26.7842 194.729C29.2317 200.185 30.4481 205.235 31.6792 206.419C32.9103 207.603 34.9401 197.453 40.2381 200.178C48.7091 204.542 34.9401 219.272 37.7906 222.004C40.6411 224.736 47.1702 210.314 50.4311 218.11C53.692 225.906 39.8277 239.929 39.8277 239.929" stroke="#263238" stroke-linecap="round" stroke-linejoin="round"/>
<path d="M35.7535 238.346L25.5605 209.123" stroke="#263238" stroke-linecap="round" stroke-linejoin="round"/>
<path d="M30.4554 223.538L34.5297 214.579" stroke="#263238" stroke-linecap="round" stroke-linejoin="round"/>
<path d="M22.2996 229.387L33.7163 232.112L39.4247 228.217" stroke="#263238" stroke-linecap="round" stroke-linejoin="round"/>
<path d="M47.8151 236.672H19.134L21.9991 260.984H44.9499L47.8151 236.672Z" fill="#263238" stroke="#263238" stroke-linecap="round" stroke-linejoin="round"/>
<path d="M130.165 169.926C130.165 169.926 119.415 170.857 115.51 164.322C111.604 157.787 118.441 149.844 111.113 147.042C103.785 144.24 94.9916 153.584 80.336 145.641C65.6803 137.698 73.4918 127.429 77.4049 119.493C81.3179 111.557 83.2671 107.817 73.9828 102.682C64.6984 97.548 54.4395 82.6003 60.7927 68.129C67.1459 53.6577 83.2671 60.1859 91.5696 52.7191C99.872 45.2523 92.5442 36.3705 92.0605 24.2317C91.5769 12.0929 108.665 2.74889 125.278 5.0884C141.89 7.4279 145.305 24.2317 145.305 34.9696C145.305 45.7076 162.891 48.5164 171.201 36.3706C179.511 24.2247 186.34 21.4299 198.556 26.5642C210.771 31.6985 200.512 48.9787 206.375 51.7805C212.237 54.5823 217.117 41.0426 234.704 48.9787C252.291 56.9148 242.523 77.9283 233.729 83.0696C220.935 90.5574 236.023 105.078 238.449 113.967C242.003 126.96 231.062 137.355 217.608 136.773C196.116 135.835 190.737 132.571 186.34 138.636C181.944 144.702 195.625 146.11 193.668 155.917C191.712 165.723 187.806 169.456 179.013 169.456C170.219 169.456 164.848 161.989 155.563 165.723C146.279 169.456 134.562 172.258 130.165 169.926Z" fill="#263238" stroke="#263238" stroke-linecap="round" stroke-linejoin="round"/>
<path d="M113.187 236.819C111.611 242.406 111.053 248.211 111.538 253.98C112.454 262.91 117.217 267.639 137.918 270.615C158.619 273.592 172.908 271.141 184.45 265.887C195.991 260.634 193.375 241.785 190.378 237.463C187.381 233.141 175.84 232.266 157.154 233.842C138.468 235.418 126.926 232.616 120.148 233.667C113.37 234.717 113.187 236.819 113.187 236.819Z" fill="#696969" stroke="#263238" stroke-linecap="round" stroke-linejoin="round"/>
<path opacity="0.3" d="M179.137 239.62C179.137 239.62 169.245 242.072 162.283 243.823C155.322 245.574 154.589 246.275 160.818 246.975C167.046 247.676 178.771 246.975 178.771 246.975C178.771 246.975 162.283 254.33 153.49 256.081C144.696 257.832 128.575 252.229 126.743 250.828C124.911 249.427 134.437 249.427 137.002 248.376C139.567 247.325 138.101 245.925 128.941 244.524C119.782 243.123 121.614 251.178 129.674 256.782C137.735 262.385 142.498 264.136 152.94 262.385C163.382 260.634 177.672 256.431 182.435 248.026C187.198 239.62 179.137 239.62 179.137 239.62Z" fill="black"/>
<path d="M108.519 183.549L107.302 206.944C107.302 206.944 105.104 212.38 109.061 215.868C113.018 219.356 118.118 218.327 120.786 213.802C123.453 209.277 123.087 198.805 123.761 194.666C124.435 190.526 119.166 186.26 114.835 184.712C110.505 183.164 108.519 183.549 108.519 183.549Z" fill="white" stroke="#263238" stroke-linecap="round" stroke-linejoin="round"/>
<path d="M194.21 183.549L195.427 206.944C195.427 206.944 197.589 212.38 193.668 215.868C189.748 219.356 184.604 218.327 181.9 213.802C179.196 209.277 179.599 198.805 178.925 194.666C178.25 190.526 183.526 186.26 187.85 184.712C192.173 183.164 194.21 183.549 194.21 183.549Z" fill="white" stroke="#263238" stroke-linecap="round" stroke-linejoin="round"/>
<path d="M141.633 148.688C141.633 148.688 142.095 158.424 139.625 162.55C137.156 166.675 129.286 166.423 124.2 166.423C119.115 166.423 111.545 170.402 109.076 174.387C107.213 177.656 105.615 181.056 104.298 184.558L121.269 193.258C121.269 193.258 119.415 196.655 121.269 201.663C123.123 206.671 125.893 208.597 125.124 211.105C124.354 213.613 114.322 231.453 113.399 234.255C112.932 235.552 112.572 236.883 112.322 238.234C112.322 238.234 133.763 242.219 152.427 241.631C171.091 241.042 190.378 237.498 190.378 237.498C190.378 237.498 184.67 227.916 181.585 222.459C178.5 217.003 175.722 211.399 176.338 209.48C176.953 207.561 180.507 202.405 180.353 193.405C180.353 193.405 194.078 190.015 199.171 184.558C199.171 184.558 193.155 170.255 186.985 167.894C180.815 165.534 173.722 167.894 168.666 166.57C163.609 165.247 160.949 162.879 160.18 161.114C159.411 159.349 158.634 151.083 158.942 149.171L141.633 148.688Z" fill="#74C69D" stroke="#263238" stroke-linecap="round" stroke-linejoin="round"/>
<path opacity="0.3" d="M126.01 205.649C126.01 205.649 120.881 200.395 126.743 199.695C132.605 198.994 141.032 204.598 150.192 206.699C159.352 208.801 170.344 199.345 175.107 200.745C179.87 202.146 176.939 209.151 171.809 212.303C166.68 215.455 152.391 215.105 144.33 214.754C136.269 214.404 132.239 212.303 126.01 205.649Z" fill="black"/>
<path d="M132.605 208.899C132.605 208.899 135.397 211.035 142.864 211.035C150.331 211.035 156.054 207.834 161.287 208.724" stroke="#263238" stroke-linecap="round" stroke-linejoin="round"/>
<path d="M129.44 209.431C129.44 209.431 132.598 211.925 139.112 212.1" stroke="#263238" stroke-linecap="round" stroke-linejoin="round"/>
<path d="M121.269 193.223C121.269 193.223 121.804 190.582 125.343 188.088" stroke="#263238" stroke-linecap="round" stroke-linejoin="round"/>
<path d="M180.353 193.37C180.353 193.37 179.115 188.27 175.766 187.199" stroke="#263238" stroke-linecap="round" stroke-linejoin="round"/>
<path d="M151.504 184.523C163.573 184.068 167.361 172.966 168.548 166.514C163.514 165.184 160.913 162.837 160.143 161.079C159.374 159.321 158.597 151.048 158.905 149.136L141.633 148.688C141.633 148.688 142.095 158.424 139.625 162.55C138.365 164.651 135.683 165.618 132.686 166.052C133.829 170.682 138.468 185.02 151.504 184.523Z" fill="white"/>
<path opacity="0.3" d="M159.205 155.959C158.898 153.697 158.797 151.414 158.905 149.136L141.633 148.688C141.724 151.196 141.633 153.707 141.362 156.204C144.396 158.102 150.544 160.371 159.205 155.959Z" fill="black"/>
<path d="M151.504 184.523C163.573 184.068 167.361 172.966 168.548 166.514C163.514 165.184 160.913 162.837 160.143 161.079C159.374 159.321 158.597 151.048 158.905 149.136L141.633 148.688C141.633 148.688 142.095 158.424 139.625 162.55C138.365 164.651 135.683 165.618 132.686 166.052C133.829 170.682 138.468 185.02 151.504 184.523Z" stroke="#263238" stroke-linecap="round" stroke-linejoin="round"/>
<path d="M134.305 128.599C134.305 128.599 132.107 125.174 129.945 127.261C127.784 129.348 129.945 133.509 131.345 135.442C132.745 137.376 135.39 138.861 136.013 138.118C136.636 137.376 134.305 128.599 134.305 128.599Z" fill="white" stroke="#263238" stroke-linecap="round" stroke-linejoin="round"/>
<path d="M168.072 128.291C168.072 128.291 171.186 124.424 172.901 128.144C174.616 131.863 169.97 137.516 167.772 138.559C165.573 139.603 166.68 136.178 166.834 134.987C166.988 133.796 168.072 128.291 168.072 128.291Z" fill="white" stroke="#263238" stroke-linecap="round" stroke-linejoin="round"/>
<path d="M132.605 115.501C132.605 115.501 133.697 129.636 134.474 136.773C135.251 143.911 138.035 150.313 146.594 152.414C155.153 154.516 161.983 151.672 164.496 146.909C167.01 142.146 168.387 133.075 168.387 125.636V113.728C168.387 113.728 146.286 107.768 132.605 115.501Z" fill="white" stroke="#263238" stroke-linecap="round" stroke-linejoin="round"/>
<path d="M149.086 135.73C149.877 136.232 150.786 136.54 151.731 136.626C152.722 136.528 153.678 136.222 154.53 135.73" stroke="#263238" stroke-linecap="round" stroke-linejoin="round"/>
<path d="M147.063 140.346C147.063 140.346 150.954 142.727 156.589 140.044" stroke="#263238" stroke-linecap="round" stroke-linejoin="round"/>
<path d="M140.842 128.291C140.842 128.291 144.11 127.849 145.971 129.04" stroke="#263238" stroke-width="2" stroke-linecap="round" stroke-linejoin="round"/>
<path d="M156.091 128.886C156.091 128.886 159.205 127.401 162.159 128.739" stroke="#263238" stroke-width="2" stroke-linecap="round" stroke-linejoin="round"/>
<path d="M133.529 126.939C134.596 125.218 135.431 123.376 136.013 121.454C136.959 118.939 137.253 116.243 136.87 113.595C135.391 114.105 133.963 114.743 132.605 115.501C132.605 115.501 133.016 121.041 133.529 126.939Z" fill="#263238" stroke="#263238" stroke-linecap="round" stroke-linejoin="round"/>
<path d="M168.38 125.755C168.38 125.706 168.38 125.664 168.38 125.615V113.707C168.38 113.707 166.856 113.301 164.372 112.839C164.533 115.15 165.258 122.12 168.38 125.755Z" fill="#263238" stroke="#263238" stroke-linecap="round" stroke-linejoin="round"/>
<path d="M139.596 123.086C139.596 123.086 142.241 119.668 147.84 120.705" stroke="#263238" stroke-linecap="round" stroke-linejoin="round"/>
<path d="M155.776 121.153C157.053 120.706 158.432 120.595 159.77 120.83C161.108 121.065 162.355 121.639 163.382 122.491" stroke="#263238" stroke-linecap="round" stroke-linejoin="round"/>
<path d="M152.94 262.385C152.94 262.385 145.795 262.385 132.972 250.302C120.148 238.22 112.087 228.063 102.195 223.86C92.3023 219.658 82.7762 228.939 83.3258 238.92C83.8753 248.901 91.5696 262.91 114.469 270.966C137.368 279.021 156.97 275.694 158.986 275.694C161.001 275.694 170.893 280.422 176.756 280.947C179.983 281.277 183.238 281.277 186.465 280.947C186.465 280.947 188.114 281.122 189.03 281.122C189.946 281.122 191.045 280.072 191.045 280.072C191.045 280.072 192.899 280.534 193.632 279.308C194.364 278.082 193.793 277.62 193.793 277.62C193.793 277.62 196.929 277.879 198.028 275.953C199.127 274.027 197.559 274.104 197.559 274.104C197.559 274.104 199.706 273.704 199.655 272.051C199.695 271.436 199.569 270.821 199.289 270.265C199.289 270.265 200.571 268.339 200.021 266.763C199.472 265.187 197.457 264.662 195.442 265.537C193.426 266.413 183.717 266.062 175.84 265.537C167.962 265.012 152.94 262.385 152.94 262.385Z" fill="white" stroke="#263238" stroke-linecap="round" stroke-linejoin="round"/>
<path d="M149.752 261.685C146.484 260.557 140.783 257.685 132.972 250.323C120.148 238.22 112.087 228.063 102.195 223.86C92.3023 219.658 82.7762 228.939 83.3258 238.92C83.8753 248.901 91.5696 262.91 114.469 270.966C123.01 273.948 131.962 275.715 141.04 276.212C149.364 272.892 150.141 265.887 149.752 261.685Z" fill="#696969"/>
<path opacity="0.3" d="M146.638 272.43C143.026 271.12 138.805 269.719 134.071 268.339C117.217 263.436 104.76 257.482 96.3326 248.376C87.9056 239.27 90.8368 227.713 90.8368 227.713L88.8949 226.032C87.0303 227.655 85.5642 229.652 84.6014 231.88C83.6386 234.108 83.203 236.512 83.3257 238.92C83.8753 248.901 91.5695 262.91 114.469 270.966C123.01 273.948 131.962 275.715 141.04 276.212C143.194 275.394 145.113 274.098 146.638 272.43Z" fill="black"/>
<path d="M149.752 261.685C146.484 260.557 140.783 257.685 132.972 250.323C120.148 238.22 112.087 228.063 102.195 223.86C92.3023 219.658 82.7762 228.939 83.3258 238.92C83.8753 248.901 91.5696 262.91 114.469 270.966C123.01 273.948 131.962 275.715 141.04 276.212C149.364 272.892 150.141 265.887 149.752 261.685Z" stroke="#263238" stroke-linecap="round" stroke-linejoin="round"/>
<path d="M199.289 270.265C198.726 270.023 198.114 269.906 197.498 269.92C196.882 269.935 196.276 270.081 195.727 270.349" fill="white"/>
<path d="M199.289 270.265C198.726 270.023 198.114 269.906 197.498 269.92C196.882 269.935 196.276 270.081 195.727 270.349" stroke="#263238" stroke-linecap="round" stroke-linejoin="round"/>
<path d="M197.559 274.104C196.612 273.776 195.575 273.776 194.628 274.104H197.559Z" fill="white"/>
<path d="M197.559 274.104C196.612 273.776 195.575 273.776 194.628 274.104" stroke="#263238" stroke-linecap="round" stroke-linejoin="round"/>
<path d="M193.793 277.62C193.116 277.133 192.278 276.897 191.433 276.954L193.793 277.62Z" fill="white"/>
<path d="M193.793 277.62C193.116 277.133 192.278 276.897 191.433 276.954" stroke="#263238" stroke-linecap="round" stroke-linejoin="round"/>
<path d="M190.854 279.896C190.854 279.896 190.07 278.545 188.92 278.545L190.854 279.896Z" fill="white"/>
<path d="M190.854 279.896C190.854 279.896 190.07 278.545 188.92 278.545" stroke="#263238" stroke-linecap="round" stroke-linejoin="round"/>
<path d="M144.814 262.385C144.814 262.385 151.958 262.385 164.782 250.302C177.606 238.22 185.666 228.063 195.559 223.86C205.451 219.658 214.978 228.939 214.428 238.92C213.878 248.901 206.184 262.91 183.285 270.966C160.385 279.021 140.783 275.694 138.768 275.694C136.753 275.694 126.86 280.422 120.998 280.947C117.771 281.277 114.516 281.277 111.289 280.947C111.289 280.947 109.64 281.122 108.724 281.122C107.808 281.122 106.709 280.072 106.709 280.072C106.709 280.072 104.855 280.534 104.122 279.308C103.389 278.082 103.961 277.62 103.961 277.62C103.961 277.62 100.817 277.879 99.7181 275.953C98.6189 274.027 100.187 274.104 100.187 274.104C100.187 274.104 98.0401 273.704 98.0913 272.051C98.0489 271.435 98.1779 270.819 98.4651 270.265C98.4651 270.265 97.1827 268.339 97.7323 266.763C98.2819 265.187 100.297 264.662 102.312 265.537C104.327 266.413 114.037 266.062 121.914 265.537C129.792 265.012 144.814 262.385 144.814 262.385Z" fill="white" stroke="#263238" stroke-linecap="round" stroke-linejoin="round"/>
<path d="M147.994 261.685C151.255 260.557 156.956 257.685 164.775 250.323C177.598 238.241 185.659 228.084 195.551 223.881C205.444 219.679 214.97 228.96 214.421 238.941C213.871 248.922 206.177 262.931 183.277 270.987C174.734 273.969 165.78 275.737 156.699 276.233C148.382 272.892 147.613 265.887 147.994 261.685Z" fill="#696969"/>
<path opacity="0.3" d="M214.428 238.92C214.809 231.965 210.295 225.359 204.169 223.405L201.487 225.261C201.487 225.261 210.647 230.515 208.448 240.671C206.25 250.828 188.297 261.334 174.008 266.938C166.893 269.604 159.591 271.787 152.156 273.473C153.492 274.636 155.032 275.563 156.707 276.212C165.787 275.716 174.742 273.948 183.285 270.966C206.184 262.91 213.878 248.901 214.428 238.92Z" fill="black"/>
<path d="M147.994 261.685C151.255 260.557 156.956 257.685 164.775 250.323C177.598 238.241 185.659 228.084 195.551 223.881C205.444 219.679 214.97 228.96 214.421 238.941C213.871 248.922 206.177 262.931 183.277 270.987C174.734 273.969 165.78 275.737 156.699 276.233C148.382 272.892 147.613 265.887 147.994 261.685Z" stroke="#263238" stroke-linecap="round" stroke-linejoin="round"/>
<path d="M98.465 270.265C99.0274 270.023 99.6393 269.906 100.256 269.92C100.872 269.935 101.477 270.081 102.026 270.349" fill="white"/>
<path d="M98.465 270.265C99.0274 270.023 99.6393 269.906 100.256 269.92C100.872 269.935 101.477 270.081 102.026 270.349" stroke="#263238" stroke-linecap="round" stroke-linejoin="round"/>
<path d="M100.187 274.104C101.134 273.776 102.171 273.776 103.118 274.104H100.187Z" fill="white"/>
<path d="M100.187 274.104C101.134 273.776 102.171 273.776 103.118 274.104" stroke="#263238" stroke-linecap="round" stroke-linejoin="round"/>
<path d="M103.961 277.62C104.638 277.133 105.476 276.897 106.32 276.954L103.961 277.62Z" fill="white"/>
<path d="M103.961 277.62C104.638 277.133 105.476 276.897 106.32 276.954" stroke="#263238" stroke-linecap="round" stroke-linejoin="round"/>
<path d="M106.899 279.896C106.899 279.896 107.691 278.496 108.834 278.496L106.899 279.896Z" fill="white"/>
<path d="M106.899 279.896C106.899 279.896 107.691 278.496 108.834 278.496" stroke="#263238" stroke-linecap="round" stroke-linejoin="round"/>
<path d="M111.626 208.499C111.626 208.499 108.922 207.981 104.056 210.307C99.1905 212.632 94.7205 216.772 92.1484 218.194C89.5764 219.616 87.825 220.526 85.5534 218.327C83.2818 216.127 78.3868 210.047 73.7849 210.181C69.183 210.314 67.5636 216.387 68.377 217.675C69.1904 218.964 70.4068 219.23 71.3521 218.194C72.2974 217.157 73.5138 215.091 74.7302 215.868C75.9466 216.646 75.2725 220.267 73.3819 220.911C71.4913 221.556 66.3472 224.659 67.5636 226.473C68.78 228.287 75.6828 230.739 80.8196 231.124C85.9564 231.509 92.317 228.154 96.5085 227.503C100.7 226.851 112.065 226.102 117.334 221.948C118.852 220.768 120.014 219.224 120.704 217.475C121.394 215.725 121.587 213.832 121.262 211.988" fill="white"/>
<path d="M111.626 208.499C111.626 208.499 108.922 207.981 104.056 210.307C99.1905 212.632 94.7205 216.772 92.1484 218.194C89.5764 219.616 87.825 220.526 85.5534 218.327C83.2818 216.127 78.3868 210.047 73.7849 210.181C69.183 210.314 67.5636 216.387 68.377 217.675C69.1904 218.964 70.4068 219.23 71.3521 218.194C72.2974 217.157 73.5138 215.091 74.7302 215.868C75.9466 216.646 75.2725 220.267 73.3819 220.911C71.4913 221.556 66.3472 224.659 67.5636 226.473C68.78 228.287 75.6828 230.739 80.8196 231.124C85.9564 231.509 92.317 228.154 96.5085 227.503C100.7 226.851 112.065 226.102 117.334 221.948C118.852 220.768 120.014 219.224 120.704 217.475C121.394 215.725 121.587 213.832 121.262 211.988" stroke="#263238" stroke-linecap="round" stroke-linejoin="round"/>
<path d="M68.2085 223.755C68.2085 223.755 67.6735 218.068 65.9149 217.675C64.1562 217.283 63.885 221.178 64.1562 224.918C64.4273 228.658 66.589 229.702 67.9373 228.665C69.2857 227.629 68.2085 223.755 68.2085 223.755Z" fill="white" stroke="#263238" stroke-linecap="round" stroke-linejoin="round"/>
<path d="M72.4366 225.359C72.4366 225.359 72.9496 219.665 71.2935 218.985C69.6374 218.306 68.6555 222.081 68.2231 225.815C67.7908 229.548 69.74 230.935 71.2642 230.15C72.7883 229.366 72.4366 225.359 72.4366 225.359Z" fill="white" stroke="#263238" stroke-linecap="round" stroke-linejoin="round"/>
<path d="M76.0859 226.662C76.0859 226.662 76.6062 220.974 74.9427 220.295C73.2793 219.616 72.3047 223.391 71.8797 227.124C71.4547 230.858 73.3893 232.245 74.9134 231.453C76.4376 230.662 76.0859 226.662 76.0859 226.662Z" fill="white" stroke="#263238" stroke-linecap="round" stroke-linejoin="round"/>
<path d="M85.656 230.865C83.2004 231.947 80.5186 232.479 77.8152 232.42C77.6586 231.347 77.5681 230.267 77.5441 229.184C77.5441 227.783 80.6511 221.948 85.2529 222.333" fill="white"/>
<path d="M85.656 230.865C83.2004 231.947 80.5186 232.479 77.8152 232.42C77.6586 231.347 77.5681 230.267 77.5441 229.184C77.5441 227.783 80.6511 221.948 85.2529 222.333" stroke="#263238" stroke-linecap="round" stroke-linejoin="round"/>
<path d="M79.9623 228.883C79.9623 228.883 81.6843 224.428 80.2627 223.391C78.8411 222.354 77.0898 225.114 75.866 228.014C74.6423 230.914 76.1885 232.609 77.8006 232.42C79.4127 232.231 79.9623 228.883 79.9623 228.883Z" fill="white" stroke="#263238" stroke-linecap="round" stroke-linejoin="round"/>
<path d="M191.096 208.499C191.096 208.499 193.8 207.981 198.673 210.307C203.546 212.632 208.001 216.772 210.573 218.194C213.146 219.616 214.904 220.526 217.205 218.327C219.506 216.127 224.372 210.047 228.966 210.181C233.561 210.314 235.188 216.387 234.382 217.675C233.576 218.964 232.352 219.23 231.406 218.194C230.461 217.157 229.208 215.091 228.021 215.868C226.834 216.646 227.479 220.267 229.377 220.911C231.275 221.556 236.411 224.659 235.188 226.473C233.964 228.287 227.076 230.739 221.939 231.124C216.802 231.509 210.442 228.154 206.243 227.503C202.044 226.851 190.693 226.102 185.417 221.948C183.9 220.768 182.737 219.224 182.049 217.474C181.36 215.724 181.169 213.831 181.497 211.988" fill="white"/>
<path d="M191.096 208.499C191.096 208.499 193.8 207.981 198.673 210.307C203.546 212.632 208.001 216.772 210.573 218.194C213.146 219.616 214.904 220.526 217.205 218.327C219.506 216.127 224.372 210.047 228.966 210.181C233.561 210.314 235.188 216.387 234.382 217.675C233.576 218.964 232.352 219.23 231.406 218.194C230.461 217.157 229.208 215.091 228.021 215.868C226.834 216.646 227.479 220.267 229.377 220.911C231.275 221.556 236.411 224.659 235.188 226.473C233.964 228.287 227.076 230.739 221.939 231.124C216.802 231.509 210.442 228.154 206.243 227.503C202.044 226.851 190.693 226.102 185.417 221.948C183.9 220.768 182.737 219.224 182.049 217.474C181.36 215.724 181.169 213.831 181.497 211.988" stroke="#263238" stroke-linecap="round" stroke-linejoin="round"/>
<path d="M234.513 223.755C234.513 223.755 235.056 218.068 236.814 217.675C238.573 217.283 238.844 221.178 238.573 224.918C238.302 228.658 236.14 229.702 234.785 228.665C233.429 227.629 234.513 223.755 234.513 223.755Z" fill="white" stroke="#263238" stroke-linecap="round" stroke-linejoin="round"/>
<path d="M230.293 225.359C230.293 225.359 229.772 219.665 231.428 218.985C233.085 218.306 234.074 222.081 234.499 225.815C234.924 229.548 232.997 230.935 231.465 230.164C229.934 229.394 230.293 225.359 230.293 225.359Z" fill="white" stroke="#263238" stroke-linecap="round" stroke-linejoin="round"/>
<path d="M226.636 226.662C226.636 226.662 226.123 220.974 227.779 220.295C229.435 219.616 230.425 223.391 230.85 227.124C231.275 230.858 229.333 232.245 227.816 231.453C226.299 230.662 226.636 226.662 226.636 226.662Z" fill="white" stroke="#263238" stroke-linecap="round" stroke-linejoin="round"/>
<path d="M217.066 230.865C219.531 231.951 222.223 232.483 224.936 232.42C225.093 231.347 225.183 230.267 225.207 229.184C225.207 227.783 222.093 221.948 217.491 222.333" fill="white"/>
<path d="M217.066 230.865C219.531 231.951 222.223 232.483 224.936 232.42C225.093 231.347 225.183 230.267 225.207 229.184C225.207 227.783 222.093 221.948 217.491 222.333" stroke="#263238" stroke-linecap="round" stroke-linejoin="round"/>
<path d="M222.738 228.883C222.738 228.883 221.016 224.428 222.437 223.391C223.859 222.354 225.603 225.114 226.834 228.014C228.065 230.914 226.511 232.609 224.899 232.42C223.287 232.231 222.738 228.883 222.738 228.883Z" fill="white" stroke="#263238" stroke-linecap="round" stroke-linejoin="round"/>
<path d="M164.848 106.885C163.126 104.496 160.451 106.822 159.762 107.536C159.03 106.836 156.399 104.496 154.684 106.885C152.816 109.484 159.704 114.898 159.762 114.87C159.821 114.842 166.694 109.484 164.848 106.885Z" stroke="#74C69D" stroke-linecap="round" stroke-linejoin="round"/>
<path d="M147.737 109.028C145.586 106.26 142.689 104.103 139.354 102.787C133.99 100.784 137.486 96.7774 139.816 97.8842C141.32 98.5901 142.878 99.1849 144.476 99.6633C144.476 99.6633 138.416 94.9843 138.189 90.9777C137.962 86.9711 144.476 92.0914 144.476 92.0914C144.476 92.0914 136.555 81.6687 139.12 79.8475C141.685 78.0264 144.007 81.4095 145.642 84.3024C146.802 86.4644 147.813 88.6966 148.668 90.9847C148.668 90.9847 148.206 83.637 150.771 85.8644C153.336 88.0919 151.702 99.229 151.702 99.229C151.702 99.229 155.197 90.1232 156.831 95.0263C158.465 99.9295 148.441 108.356 147.737 109.028Z" stroke="#74C69D" stroke-linecap="round" stroke-linejoin="round"/>
<path d="M147.737 109.028C147.737 109.028 151.467 98.3324 143.78 84.5125" stroke="#74C69D" stroke-linecap="round" stroke-linejoin="round"/>
<path d="M134.95 38.0236C132.279 38.0042 129.652 38.6797 127.351 39.9779C123.687 42.0792 122.808 38.3458 124.537 37.5263C125.643 36.9904 126.706 36.377 127.718 35.6911C127.718 35.6911 122.119 37.0219 119.54 35.3619C116.96 33.7018 123.035 32.3079 123.035 32.3079C123.035 32.3079 113.033 32.1118 113.077 29.8703C113.121 27.6289 116.22 27.769 118.741 28.1752C120.595 28.4855 122.425 28.9089 124.222 29.4431C124.222 29.4431 119.474 26.4241 121.987 25.9408C124.501 25.4575 130.663 31.3763 130.663 31.3763C130.663 31.3763 126.582 25.3314 130.334 26.5922C134.086 27.853 134.848 37.3301 134.95 38.0236Z" stroke="#74C69D" stroke-linecap="round" stroke-linejoin="round"/>
<path d="M134.95 38.0236C134.95 38.0236 130.011 31.1452 118.045 29.324" stroke="#74C69D" stroke-linecap="round" stroke-linejoin="round"/>
<path d="M181.233 82.2781C181.025 82.2821 180.819 82.308 180.617 82.3552C180.927 82.0726 181.162 81.7231 181.301 81.3359C181.44 80.9487 181.48 80.5353 181.417 80.1303C181.354 79.7253 181.191 79.3407 180.94 79.0087C180.69 78.6767 180.359 78.4072 179.977 78.2226C179.595 78.0381 179.172 77.9441 178.743 77.9484C178.315 77.9527 177.894 78.0553 177.516 78.2475C177.138 78.4397 176.813 78.7158 176.57 79.0528C176.327 79.3897 176.172 79.7776 176.118 80.1838C175.946 79.8377 175.696 79.5329 175.384 79.292C175.073 79.051 174.709 78.88 174.319 78.7916C173.929 78.7031 173.523 78.6995 173.132 78.7811C172.74 78.8626 172.373 79.0272 172.057 79.2626C171.741 79.498 171.484 79.7983 171.306 80.1412C171.128 80.4842 171.032 80.8611 171.027 81.244C171.021 81.6269 171.106 82.0062 171.274 82.3537C171.443 82.7012 171.691 83.0081 172 83.2517C171.654 83.4173 171.35 83.6526 171.108 83.9413C170.867 84.23 170.694 84.5654 170.601 84.9243C170.508 85.2831 170.498 85.6569 170.571 86.0199C170.644 86.383 170.798 86.7265 171.024 87.027C171.249 87.3274 171.54 87.5776 171.876 87.7603C172.212 87.9429 172.586 88.0538 172.971 88.0851C173.356 88.1164 173.744 88.0674 174.108 87.9416C174.472 87.8158 174.802 87.6162 175.077 87.3564C175.138 87.9983 175.451 88.5944 175.952 89.0249C176.454 89.4554 177.108 89.6884 177.782 89.6768C178.456 89.6653 179.1 89.4101 179.586 88.9627C180.071 88.5153 180.361 87.9089 180.397 87.2653C180.667 87.3515 180.949 87.3987 181.233 87.4054C181.944 87.4054 182.626 87.1353 183.129 86.6545C183.632 86.1738 183.915 85.5217 183.915 84.8418C183.915 84.1618 183.632 83.5098 183.129 83.029C182.626 82.5482 181.944 82.2781 181.233 82.2781V82.2781Z" stroke="#74C69D" stroke-linecap="round" stroke-linejoin="round"/>
<path d="M176.668 86.0675C177.692 86.0675 178.522 85.2741 178.522 84.2954C178.522 83.3167 177.692 82.5233 176.668 82.5233C175.644 82.5233 174.814 83.3167 174.814 84.2954C174.814 85.2741 175.644 86.0675 176.668 86.0675Z" stroke="#74C69D" stroke-linecap="round" stroke-linejoin="round"/>
<path d="M127.608 102.444C127.398 102.448 127.189 102.474 126.985 102.521C127.297 102.239 127.533 101.89 127.674 101.503C127.815 101.115 127.856 100.701 127.794 100.295C127.732 99.8891 127.569 99.5034 127.319 99.1704C127.068 98.8374 126.737 98.5669 126.354 98.3818C125.972 98.1967 125.548 98.1024 125.119 98.1068C124.689 98.1113 124.268 98.2143 123.889 98.4073C123.51 98.6003 123.186 98.8775 122.943 99.2156C122.7 99.5537 122.546 99.9427 122.493 100.35C122.23 99.827 121.789 99.4051 121.243 99.1535C120.696 98.9018 120.076 98.8353 119.485 98.9648C118.893 99.0943 118.366 99.4122 117.988 99.8662C117.611 100.32 117.406 100.883 117.407 101.463C117.408 101.837 117.495 102.206 117.662 102.544C117.829 102.882 118.073 103.18 118.375 103.418C118.029 103.583 117.725 103.819 117.483 104.107C117.242 104.396 117.069 104.731 116.976 105.09C116.883 105.449 116.873 105.823 116.946 106.186C117.019 106.549 117.173 106.893 117.399 107.193C117.624 107.493 117.915 107.744 118.251 107.926C118.587 108.109 118.961 108.22 119.346 108.251C119.731 108.282 120.119 108.233 120.483 108.108C120.847 107.982 121.177 107.782 121.452 107.522C121.524 108.156 121.84 108.741 122.34 109.162C122.839 109.583 123.486 109.811 124.152 109.799C124.819 109.788 125.456 109.539 125.94 109.1C126.423 108.662 126.718 108.067 126.765 107.431C127.036 107.522 127.321 107.569 127.608 107.571C128.319 107.571 129.001 107.301 129.504 106.821C130.007 106.34 130.29 105.688 130.29 105.008C130.29 104.328 130.007 103.676 129.504 103.195C129.001 102.714 128.319 102.444 127.608 102.444V102.444Z" stroke="#74C69D" stroke-linecap="round" stroke-linejoin="round"/>
<path d="M123.035 106.234C124.059 106.234 124.889 105.44 124.889 104.461C124.889 103.483 124.059 102.689 123.035 102.689C122.011 102.689 121.181 103.483 121.181 104.461C121.181 105.44 122.011 106.234 123.035 106.234Z" stroke="#74C69D" stroke-linecap="round" stroke-linejoin="round"/>
<path d="M126.142 70.5876C126.011 70.5896 125.881 70.6061 125.754 70.6366C125.919 70.4898 126.05 70.3119 126.14 70.1142C126.229 69.9165 126.275 69.7033 126.274 69.4879C126.294 69.0715 126.142 68.6643 125.852 68.3539C125.561 68.0434 125.154 67.8546 124.719 67.8279C124.284 67.8013 123.855 67.939 123.525 68.2115C123.195 68.484 122.99 68.8694 122.955 69.2847C122.848 69.0696 122.691 68.8803 122.497 68.7306C122.303 68.581 122.077 68.475 121.834 68.4203C121.592 68.3657 121.339 68.3639 121.096 68.415C120.852 68.4661 120.624 68.5688 120.428 68.7156C120.231 68.8624 120.072 69.0495 119.962 69.263C119.851 69.4765 119.792 69.7111 119.789 69.9493C119.786 70.1875 119.839 70.4233 119.945 70.6393C120.05 70.8552 120.205 71.0458 120.397 71.197C120.122 71.325 119.89 71.524 119.726 71.7715C119.563 72.0191 119.476 72.3053 119.474 72.5979C119.464 72.9201 119.556 73.2376 119.739 73.5087C119.921 73.7798 120.185 73.9918 120.496 74.1168C120.807 74.2419 121.15 74.2741 121.48 74.2093C121.81 74.1444 122.112 73.9856 122.346 73.7536C122.393 74.1476 122.591 74.5109 122.903 74.7722C123.215 75.0335 123.618 75.174 124.033 75.1661C124.447 75.1582 124.844 75.0025 125.145 74.7296C125.446 74.4566 125.629 74.086 125.659 73.6906C125.825 73.7497 126.001 73.7805 126.179 73.7816C126.622 73.7816 127.047 73.6134 127.36 73.3139C127.674 73.0144 127.85 72.6082 127.85 72.1846C127.85 71.7611 127.674 71.3548 127.36 71.0553C127.047 70.7558 126.622 70.5876 126.179 70.5876H126.142Z" stroke="#74C69D" stroke-linecap="round" stroke-linejoin="round"/>
<path d="M123.299 72.9481C123.938 72.9481 124.457 72.4526 124.457 71.8414C124.457 71.2301 123.938 70.7346 123.299 70.7346C122.66 70.7346 122.141 71.2301 122.141 71.8414C122.141 72.4526 122.66 72.9481 123.299 72.9481Z" stroke="#74C69D" stroke-linecap="round" stroke-linejoin="round"/>
<path d="M111.04 119.493C110.911 119.495 110.783 119.512 110.659 119.542C110.821 119.394 110.95 119.216 111.039 119.018C111.127 118.821 111.172 118.608 111.171 118.393C111.17 117.991 111.008 117.603 110.719 117.31C110.43 117.017 110.035 116.84 109.615 116.814C109.194 116.788 108.779 116.916 108.453 117.171C108.127 117.427 107.915 117.791 107.859 118.19C107.751 117.977 107.595 117.789 107.401 117.641C107.207 117.493 106.981 117.388 106.739 117.334C106.498 117.281 106.247 117.279 106.004 117.33C105.762 117.381 105.535 117.484 105.339 117.629C105.143 117.775 104.984 117.961 104.874 118.173C104.763 118.385 104.703 118.619 104.699 118.856C104.695 119.093 104.746 119.328 104.849 119.544C104.952 119.759 105.104 119.95 105.295 120.102C105.081 120.206 104.892 120.352 104.743 120.532C104.594 120.711 104.487 120.919 104.43 121.142C104.372 121.365 104.366 121.596 104.411 121.822C104.457 122.047 104.552 122.26 104.692 122.446C104.831 122.633 105.011 122.788 105.22 122.902C105.428 123.016 105.659 123.085 105.898 123.105C106.137 123.126 106.378 123.096 106.604 123.019C106.83 122.942 107.036 122.819 107.207 122.659C107.253 123.053 107.452 123.416 107.764 123.678C108.076 123.939 108.479 124.08 108.893 124.072C109.308 124.064 109.705 123.908 110.005 123.635C110.306 123.362 110.49 122.992 110.519 122.596C110.686 122.654 110.862 122.685 111.04 122.687C111.483 122.687 111.908 122.519 112.221 122.219C112.534 121.92 112.71 121.514 112.71 121.09C112.71 120.667 112.534 120.26 112.221 119.961C111.908 119.661 111.483 119.493 111.04 119.493V119.493Z" stroke="#74C69D" stroke-linecap="round" stroke-linejoin="round"/>
<path d="M108.196 121.854C108.836 121.854 109.354 121.358 109.354 120.747C109.354 120.136 108.836 119.64 108.196 119.64C107.557 119.64 107.039 120.136 107.039 120.747C107.039 121.358 107.557 121.854 108.196 121.854Z" stroke="#74C69D" stroke-linecap="round" stroke-linejoin="round"/>
<path d="M143.473 44.0475C143.344 44.0496 143.216 44.066 143.091 44.0965C143.283 43.9208 143.429 43.7037 143.515 43.4634C143.601 43.2231 143.625 42.9666 143.587 42.7153C143.548 42.4641 143.446 42.2254 143.291 42.0192C143.136 41.813 142.931 41.6454 142.694 41.5304C142.457 41.4154 142.195 41.3563 141.929 41.3581C141.664 41.3599 141.402 41.4225 141.167 41.5407C140.932 41.659 140.73 41.8293 140.577 42.0376C140.425 42.2458 140.327 42.4859 140.292 42.7376C140.129 42.4103 139.855 42.146 139.513 41.9884C139.172 41.8308 138.784 41.7895 138.415 41.8712C138.045 41.9529 137.716 42.1529 137.482 42.4378C137.248 42.7228 137.122 43.0757 137.127 43.4381C137.126 43.67 137.18 43.8991 137.284 44.1087C137.388 44.3183 137.54 44.5032 137.728 44.6499C137.389 44.8077 137.117 45.0704 136.955 45.3952C136.793 45.72 136.752 46.0877 136.837 46.4382C136.922 46.7886 137.129 47.1011 137.424 47.3246C137.718 47.5482 138.084 47.6695 138.46 47.6688C138.677 47.669 138.891 47.6283 139.091 47.5489C139.291 47.4696 139.473 47.3532 139.625 47.2065C139.671 47.6005 139.869 47.964 140.18 48.2258C140.491 48.4876 140.894 48.6289 141.308 48.6219C141.723 48.6148 142.12 48.4601 142.421 48.1879C142.723 47.9157 142.907 47.5457 142.938 47.1505C143.105 47.2056 143.281 47.2363 143.458 47.2415C143.901 47.2415 144.326 47.0733 144.639 46.7738C144.953 46.4743 145.129 46.0681 145.129 45.6445C145.129 45.2209 144.953 44.8147 144.639 44.5152C144.326 44.2157 143.901 44.0475 143.458 44.0475H143.473Z" stroke="#74C69D" stroke-linecap="round" stroke-linejoin="round"/>
<path d="M140.629 46.408C141.269 46.408 141.787 45.9125 141.787 45.3013C141.787 44.6901 141.269 44.1946 140.629 44.1946C139.99 44.1946 139.472 44.6901 139.472 45.3013C139.472 45.9125 139.99 46.408 140.629 46.408Z" stroke="#74C69D" stroke-linecap="round" stroke-linejoin="round"/>
<path d="M179.269 54.127C179.138 54.129 179.008 54.1455 178.881 54.176C179.046 54.0292 179.177 53.8513 179.266 53.6536C179.356 53.4559 179.402 53.2427 179.401 53.0273C179.421 52.6109 179.269 52.2037 178.978 51.8933C178.687 51.5828 178.281 51.3939 177.845 51.3673C177.41 51.3407 176.982 51.4784 176.652 51.7509C176.322 52.0234 176.117 52.4087 176.081 52.8241C175.974 52.609 175.818 52.4196 175.624 52.27C175.43 52.1204 175.203 52.0144 174.961 51.9597C174.718 51.9051 174.466 51.9032 174.223 51.9544C173.979 52.0055 173.751 52.1082 173.554 52.255C173.358 52.4018 173.199 52.5888 173.088 52.8024C172.978 53.0159 172.919 53.2504 172.916 53.4887C172.913 53.7269 172.966 53.9627 173.071 54.1786C173.177 54.3946 173.331 54.5852 173.524 54.7364C173.249 54.8644 173.016 55.0634 172.853 55.3109C172.69 55.5585 172.603 55.8447 172.601 56.1373C172.601 56.451 172.699 56.7577 172.88 57.0189C173.062 57.2801 173.32 57.4844 173.623 57.6062C173.925 57.728 174.259 57.7619 174.581 57.7037C174.904 57.6455 175.201 57.4978 175.437 57.279C175.483 57.673 175.681 58.0363 175.993 58.2976C176.305 58.5589 176.708 58.6994 177.123 58.6915C177.537 58.6836 177.934 58.5279 178.235 58.2549C178.536 57.982 178.719 57.6114 178.749 57.216C178.915 57.2751 179.091 57.3059 179.269 57.307C179.712 57.307 180.137 57.1388 180.45 56.8393C180.764 56.5398 180.94 56.1335 180.94 55.71C180.94 55.2864 180.764 54.8802 180.45 54.5807C180.137 54.2812 179.712 54.113 179.269 54.113V54.127Z" stroke="#74C69D" stroke-linecap="round" stroke-linejoin="round"/>
<path d="M176.426 56.4875C177.065 56.4875 177.584 55.992 177.584 55.3808C177.584 54.7696 177.065 54.2741 176.426 54.2741C175.786 54.2741 175.268 54.7696 175.268 55.3808C175.268 55.992 175.786 56.4875 176.426 56.4875Z" stroke="#74C69D" stroke-linecap="round" stroke-linejoin="round"/>
<path d="M157.52 74.6642C158.453 72.2415 159.597 69.8984 160.942 67.6597C162.649 65.089 168.754 64.6267 168.754 64.6267C168.754 64.6267 165.581 69.5299 164.115 71.8624C162.649 74.1949 157.52 74.6642 157.52 74.6642Z" stroke="#74C69D" stroke-linecap="round" stroke-linejoin="round"/>
<path d="M157.52 74.6642C157.52 74.6642 162.158 68.3601 167.537 65.3272" stroke="#74C69D" stroke-linecap="round" stroke-linejoin="round"/>
<path d="M87.0776 97.3868C89.7114 96.8165 92.3905 96.458 95.0869 96.3152C98.2672 96.3152 102.012 100.924 102.012 100.924C102.012 100.924 95.9736 101.05 93.1304 101.148C90.2872 101.246 87.0776 97.3868 87.0776 97.3868Z" stroke="#74C69D" stroke-linecap="round" stroke-linejoin="round"/>
<path d="M87.0776 97.3868C87.0776 97.3868 95.1382 97.674 100.729 100.322" stroke="#74C69D" stroke-linecap="round" stroke-linejoin="round"/>
<path d="M195.793 92.0564C195.793 92.0564 194.606 86.782 192.019 87.0902C189.433 87.3984 191.521 93.6044 191.521 93.6044C191.521 93.6044 188.121 94.529 188.282 95.9229C188.443 97.3168 190.862 96.154 192.957 95.8458C192.957 95.8458 192.115 99.4672 194.379 100.049C196.643 100.63 196.211 95.2715 196.211 95.2715C196.211 95.2715 201.267 96.2591 202.689 94.0947C204.337 91.6081 197.896 91.7412 195.793 92.0564Z" stroke="#74C69D" stroke-linecap="round" stroke-linejoin="round"/>
<path d="M195.793 90.4313C195.793 90.4313 191.074 97.2888 191.353 98.0102C191.631 98.7317 196.738 92.0564 197.589 91.2439C198.439 90.4314 196.929 89.2546 195.793 90.4313Z" fill="#263238" stroke="#74C69D" stroke-linecap="round" stroke-linejoin="round"/>
<path d="M197.589 91.2439C197.589 91.2439 200.703 88.5331 202.212 89.6188C203.722 90.7045 201.934 90.8796 201.743 90.5224" stroke="#74C69D" stroke-linecap="round" stroke-linejoin="round"/>
<path d="M196.079 89.885C196.079 89.885 196.929 85.9134 195.984 85.1009C195.038 84.2884 194.657 85.3741 195.324 86.0045" stroke="#74C69D" stroke-linecap="round" stroke-linejoin="round"/>
<path d="M150.925 58.9461C148.404 55.4438 144.506 58.855 143.458 59.8987C142.403 58.855 138.504 55.4298 135.984 58.9461C133.236 62.7635 143.363 70.7207 143.458 70.6856C143.553 70.6506 153.658 62.7565 150.925 58.9461Z" stroke="#74C69D" stroke-linecap="round" stroke-linejoin="round"/>
<path d="M115.949 45.2873C113.341 43.8023 111.956 46.9754 111.611 47.8999C110.651 47.5427 107.214 46.499 106.709 49.3429C106.152 52.4459 114.769 54.6173 114.821 54.5682C114.872 54.5192 118.778 46.8983 115.949 45.2873Z" stroke="#74C69D" stroke-linecap="round" stroke-linejoin="round"/>
<path d="M91.6281 74.1739C88.6018 73.9567 88.8362 77.389 88.9681 78.3766C87.9422 78.4677 84.3809 78.979 85.2529 81.7528C86.1982 84.7717 94.933 83.0346 94.9477 82.9716C94.9623 82.9085 94.911 74.412 91.6281 74.1739Z" stroke="#74C69D" stroke-linecap="round" stroke-linejoin="round"/>
<path d="M187.689 119.549C190.092 117.777 187.52 115.346 186.743 114.73C187.476 114.03 189.74 111.354 187.154 109.827C184.34 108.181 179.049 115.045 179.093 115.101C179.137 115.157 185.08 121.468 187.689 119.549Z" stroke="#74C69D" stroke-linecap="round" stroke-linejoin="round"/>
<path d="M173.678 72.4087C175.32 70.9522 177.155 69.7087 179.137 68.7104" stroke="#74C69D" stroke-linecap="round" stroke-linejoin="round"/>
<path d="M160.085 100.581C160.085 100.581 161.799 86.6349 169.831 76.4784" stroke="#74C69D" stroke-linecap="round" stroke-linejoin="round"/>
<path d="M138.424 106.5C139.116 107.525 139.743 108.589 140.3 109.687" stroke="#74C69D" stroke-linecap="round" stroke-linejoin="round"/>
<path d="M111.142 89.948C112.197 90.7534 113.382 91.3876 114.652 91.8252C120.448 93.9266 128.538 96.028 134.833 102.206" stroke="#74C69D" stroke-linecap="round" stroke-linejoin="round"/>
<path d="M108.424 83.4198C108.138 84.889 108.398 86.4072 109.156 87.7136" stroke="#74C69D" stroke-linecap="round" stroke-linejoin="round"/>
<path d="M176.14 47.0384C177.982 45.4383 179.495 43.5236 180.603 41.3928" stroke="#74C69D" stroke-linecap="round" stroke-linejoin="round"/>
<path d="M154.428 67.5056C155.621 64.6394 157.283 61.9725 159.352 59.6045C163.521 54.8624 168.013 52.6 172.007 50.0433" stroke="#74C69D" stroke-linecap="round" stroke-linejoin="round"/>
<path d="M152.024 78.8669C152.024 77.2219 152.183 75.5805 152.5 73.9637" stroke="#74C69D" stroke-linecap="round" stroke-linejoin="round"/>
<path d="M174.872 107.291C177.921 105.82 182.2 104.714 187.93 105.134C202.22 106.185 208.815 110.387 215.043 102.332" stroke="#74C69D" stroke-linecap="round" stroke-linejoin="round"/>
<path d="M168.512 112.489C169.169 111.517 169.969 110.639 170.886 109.883" stroke="#74C69D" stroke-linecap="round" stroke-linejoin="round"/>
<path d="M198.893 75.6098H196.936C195.757 75.6098 193.602 74.3 194.584 73.1722C195.566 72.0445 198.893 74.6712 198.893 74.6712L195.962 65.8665L202.234 63.0647L204.784 71.309C204.784 71.309 200.864 69.8101 200.468 71.4912C200.073 73.1722 203.018 72.9901 204.784 72.2406" stroke="#74C69D" stroke-linecap="round" stroke-linejoin="round"/>
<path d="M196.541 67.7367L202.615 64.9279" stroke="#74C69D" stroke-linecap="round" stroke-linejoin="round"/>
<path d="M212.369 72.808H211.079C210.295 72.808 208.881 71.9394 209.518 71.197C210.156 70.4545 212.369 72.1846 212.369 72.1846L210.427 66.3638L214.574 64.5076L216.26 69.9572C216.26 69.9572 213.666 68.9695 213.409 70.0832C213.153 71.197 215.095 71.0709 216.26 70.5736" stroke="#74C69D" stroke-linecap="round" stroke-linejoin="round"/>
<path d="M210.815 67.6037L214.831 65.7475" stroke="#74C69D" stroke-linecap="round" stroke-linejoin="round"/>
<path d="M98.4211 66.5039H97.1314C96.3473 66.5039 94.933 65.6354 95.5705 64.8929C96.2081 64.1504 98.4211 65.8805 98.4211 65.8805L96.4792 60.0598L100.627 58.2036L102.312 63.6531C102.312 63.6531 99.7181 62.6655 99.4616 63.7792C99.2051 64.8929 101.147 64.7668 102.312 64.2695" stroke="#74C69D" stroke-linecap="round" stroke-linejoin="round"/>
<path d="M96.8676 61.2996L100.883 59.4434" stroke="#74C69D" stroke-linecap="round" stroke-linejoin="round"/>
<path d="M221.272 86.1936C221.272 86.1936 226.577 84.6666 225.735 81.6687C225.002 79.1331 222.525 81.6687 222.525 81.6687C222.525 81.6687 224.064 79.2872 221.792 78.1665C219.521 77.0457 218.861 80.1137 218.861 80.1137C218.861 80.1137 218.407 77.2699 216.34 78.5797C214.274 79.8896 218.634 86.9081 218.634 86.9081L221.272 86.1936Z" stroke="#74C69D" stroke-linecap="round" stroke-linejoin="round"/>
<path d="M214.472 97.0156C216.547 93.9548 217.95 90.5234 218.597 86.9291L220.854 80.2608" stroke="#74C69D" stroke-linecap="round" stroke-linejoin="round"/>
<path d="M217.22 91.7552C217.44 90.3753 217.113 88.9665 216.304 87.8047C215.495 86.5056 214.493 85.3258 213.329 84.3024C213.329 84.3024 212.64 86.712 213.094 88.2459C213.549 89.7799 217.22 91.7552 217.22 91.7552Z" stroke="#74C69D" stroke-linecap="round" stroke-linejoin="round"/>
<path d="M216.538 93.5063C217.43 92.7745 218.573 92.3851 219.748 92.4136H224.101C224.101 92.4136 218.597 96.5743 216.538 93.5063Z" stroke="#74C69D" stroke-linecap="round" stroke-linejoin="round"/>
<path d="M217.894 81.3885L218.583 86.5719L222.43 83.8401" stroke="#74C69D" stroke-linecap="round" stroke-linejoin="round"/>
<path d="M97.7762 108.797C97.7762 108.797 94.3028 104.679 91.7161 106.549C89.5177 108.139 92.9252 109.393 92.9252 109.393C92.9252 109.393 90.0307 108.93 89.8328 111.375C89.635 113.819 92.8153 113.189 92.8153 113.189C92.8153 113.189 90.2285 114.667 92.2803 115.991C94.3321 117.315 99.4909 110.821 99.4909 110.821L97.7762 108.797Z" stroke="#74C69D" stroke-linecap="round" stroke-linejoin="round"/>
<path d="M110.812 110.723C107.068 110.036 103.216 110.084 99.4909 110.863L92.1631 111.382" stroke="#74C69D" stroke-linecap="round" stroke-linejoin="round"/>
<path d="M104.679 110.268C103.26 110.593 102.019 111.412 101.198 112.566C100.244 113.772 99.4789 115.106 98.9267 116.523C98.9267 116.523 101.521 116.229 102.832 115.241C104.144 114.254 104.679 110.268 104.679 110.268Z" stroke="#74C69D" stroke-linecap="round" stroke-linejoin="round"/>
<path d="M106.636 110.219C105.589 109.706 104.78 108.84 104.364 107.789C103.595 105.96 102.73 103.929 102.73 103.929C102.73 103.929 108.834 107.235 106.636 110.219Z" stroke="#74C69D" stroke-linecap="round" stroke-linejoin="round"/>
<path d="M94.3835 113.574L99.1465 111.011L95.0503 108.636" stroke="#74C69D" stroke-linecap="round" stroke-linejoin="round"/>
<path d="M133.221 91.1878C133.002 90.7092 132.757 90.2417 132.488 89.7869C131.176 87.4825 129.249 85.4582 126.223 85.8714C121.093 86.5719 130.62 94.2768 132.334 94.508C134.445 94.7952 133.902 92.7428 133.221 91.1878Z" fill="#92E3A9"/>
<path d="M129.315 62.2382C129.051 61.6428 128.773 61.1245 128.582 60.8373C127.263 58.5258 125.343 56.5085 122.317 56.9218C117.188 57.6222 126.714 65.3272 128.429 65.5583C130.539 65.8455 129.997 63.7862 129.315 62.2382Z" fill="#92E3A9"/>
<path d="M180.874 94.0317C180.222 94.2138 179.65 94.4239 179.335 94.543C176.785 95.5236 174.462 97.1207 174.543 100.042C174.682 104.994 183.783 96.8335 184.223 95.2294C184.758 93.2892 182.559 93.5764 180.874 94.0317Z" fill="#92E3A9"/>
<path d="M187.469 67.8838C186.947 68.0286 186.433 68.1992 185.93 68.3951C183.38 69.3758 181.057 70.9658 181.138 73.8867C181.277 78.8389 190.378 70.6786 190.818 69.0816C191.353 67.1343 189.154 67.4145 187.469 67.8838Z" fill="#92E3A9"/>
<path d="M225.024 66.2588C224.504 66.4012 223.992 66.5719 223.492 66.7701C220.942 67.7507 218.619 69.3408 218.7 72.2616C218.839 77.2138 227.94 69.0536 228.38 67.4566C228.915 65.4883 226.717 65.7685 225.024 66.2588Z" fill="#92E3A9"/>
<path d="M122.046 90.0741C121.944 89.835 121.829 89.6012 121.702 89.3737C121.064 88.253 120.126 87.2723 118.646 87.4615C116.14 87.8047 120.793 91.5661 121.628 91.6642C122.647 91.8323 122.383 90.8306 122.046 90.0741Z" fill="#92E3A9"/>
<path d="M104.159 71.9044C103.91 71.7013 103.66 71.5332 103.529 71.4421C102.422 70.7066 101.125 70.2303 99.9013 71.0429C97.8202 72.4438 103.741 73.7886 104.54 73.5365C105.492 73.2213 104.811 72.4438 104.159 71.9044Z" fill="#92E3A9"/>
<path d="M130.598 80.499C130.496 80.2596 130.381 80.0258 130.253 79.7985C129.608 78.6708 128.67 77.6972 127.197 77.8863C124.691 78.2295 129.344 81.9839 130.18 82.089C131.191 82.2641 130.927 81.2555 130.598 80.499Z" fill="#92E3A9"/>
<path d="M87.4586 64.7248C87.3583 64.485 87.2433 64.2511 87.1142 64.0243C86.4767 62.8966 85.5387 61.923 84.0585 62.1121C81.5524 62.4553 86.2056 66.2168 87.0409 66.3148C88.0595 66.4829 87.7957 65.4813 87.4586 64.7248Z" fill="#92E3A9"/>
<path d="M99.1172 89.2616C98.8807 89.1244 98.636 89.0005 98.3844 88.8904C97.1827 88.33 95.8197 88.0498 94.7205 89.0304C92.8886 90.7045 98.9633 91.1808 99.7108 90.8096C100.678 90.3613 99.85 89.6889 99.1172 89.2616Z" fill="#92E3A9"/>
<path d="M128.399 52.9502C128.297 52.7111 128.182 52.4773 128.055 52.2498C127.41 51.129 126.472 50.1484 124.999 50.3375C122.493 50.6807 127.146 54.4422 127.982 54.5402C128.993 54.7083 128.729 53.7067 128.399 52.9502Z" fill="#92E3A9"/>
<path d="M155.959 81.4166C155.761 81.6617 155.593 81.8999 155.505 82.033C154.772 83.1117 154.325 84.3795 155.226 85.5352C156.751 87.4685 157.952 81.7598 157.652 81.0033C157.285 80.0647 156.494 80.7721 155.959 81.4166Z" fill="#92E3A9"/>
<path d="M167.684 96.126C167.486 96.3712 167.317 96.6093 167.229 96.7424C166.497 97.8211 166.05 99.0889 166.951 100.245C168.475 102.178 169.677 96.4693 169.376 95.7128C169.01 94.7742 168.219 95.4816 167.684 96.126Z" fill="#92E3A9"/>
<path d="M184.01 57.8534C183.762 57.9179 183.517 57.9951 183.277 58.0845C182.024 58.5398 180.874 59.2963 180.881 60.7182C180.881 63.1348 185.424 59.2473 185.659 58.4698C185.915 57.4891 184.845 57.6012 184.01 57.8534Z" fill="#92E3A9"/>
<path d="M155.71 49.0487C155.476 49.2658 155.27 49.476 155.16 49.595C154.274 50.5547 153.622 51.7384 154.332 52.9922C155.527 55.0936 157.623 49.6581 157.454 48.8736C157.242 47.9069 156.34 48.4883 155.71 49.0487Z" fill="#92E3A9"/>
<path d="M105.185 98.4795C105.375 98.6536 105.576 98.8173 105.786 98.9698C106.848 99.7614 108.123 100.301 109.391 99.5512C111.538 98.2834 105.727 96.6163 104.892 96.8335C103.902 97.0786 104.562 97.8982 105.185 98.4795Z" fill="#92E3A9"/>
<path d="M196.738 58.1125C196.416 58.1125 196.116 58.1125 195.947 58.1125C194.606 58.1896 193.272 58.5818 192.833 59.9407C192.1 62.2522 197.632 59.8356 198.094 59.1632C198.658 58.3437 197.603 58.1475 196.738 58.1125Z" fill="#92E3A9"/>
</svg>
