<svg width="19" height="18" viewBox="0 0 19 18" fill="none" xmlns="http://www.w3.org/2000/svg">
<path d="M14.4058 3.21362C13.8228 3.21362 13.3502 3.68624 13.3502 4.26874C13.3502 4.85175 13.8228 5.32436 14.4058 5.32436C14.9883 5.32436 15.4609 4.85175 15.4609 4.26874C15.4609 3.68624 14.9883 3.21362 14.4058 3.21362Z" fill="white"/>
<path d="M9.71407 11.8392C8.14819 11.8392 6.87431 10.5654 6.87431 8.99999C6.87431 7.43411 8.14819 6.16025 9.71407 6.16025C11.2794 6.16025 12.5533 7.43411 12.5533 8.99999C12.5533 10.5654 11.2794 11.8392 9.71407 11.8392ZM9.71407 4.56689C7.26961 4.56689 5.28098 6.55553 5.28098 8.99999C5.28098 11.4439 7.26961 13.4326 9.71407 13.4326C12.158 13.4326 14.1467 11.4439 14.1467 8.99999C14.1467 6.55553 12.158 4.56689 9.71407 4.56689Z" fill="white"/>
<path d="M6.04709 1.69357C3.99944 1.69357 2.33384 3.35917 2.33384 5.40682V12.5932C2.33384 14.6408 3.99944 16.3064 6.04709 16.3064H13.2334C15.2811 16.3064 16.9472 14.6408 16.9472 12.5932V5.40682C16.9472 3.35917 15.2811 1.69357 13.2334 1.69357H6.04709ZM13.2334 18H6.04709C3.06541 18 0.640778 15.5744 0.640778 12.5932V5.40682C0.640778 2.42513 3.06541 0 6.04709 0H13.2334C16.2146 0 18.6403 2.42513 18.6403 5.40682V12.5932C18.6403 15.5744 16.2146 18 13.2334 18Z" fill="white"/>
</svg>
