<svg width="119" height="92" viewBox="0 0 119 92" fill="none" xmlns="http://www.w3.org/2000/svg">
<g filter="url(#filter0_d_13_2949)">
<path d="M65.1121 49.9438C66.5135 51.3751 68.0938 52.9255 69.5847 54.804C75.0114 43.9506 86.2227 41.5354 97.6427 36.6752C99.2302 28.9643 99.5023 21.0405 98.4477 13.2388C94.5417 18.9041 82.8831 25.1657 75.4288 31.5466C74.7132 32.1131 74.0573 32.7393 73.4013 33.3356C72.7453 33.932 72.2086 34.5581 71.6719 35.1843C71.1352 35.8105 71.0755 35.9297 70.8072 36.3174C70.5388 36.705 70.0916 37.2715 69.8232 37.7188C68.969 38.9975 68.202 40.3324 67.5273 41.7143C67.1383 42.456 66.7996 43.223 66.5135 44.0102C66.2451 44.696 66.0066 45.3818 65.8277 45.9781C65.4108 47.2616 65.1701 48.5956 65.1121 49.9438Z" fill="#FFC727"/>
<path opacity="0.5" d="M65.1121 49.9438C66.5135 51.3751 68.0938 52.9255 69.5847 54.804C75.0114 43.9506 86.2227 41.5354 97.6427 36.6752C99.2302 28.9643 99.5023 21.0405 98.4477 13.2388C94.5417 18.9041 82.8831 25.1657 75.4288 31.5466C74.7132 32.1131 74.0573 32.7393 73.4013 33.3356C72.7453 33.932 72.2086 34.5581 71.6719 35.1843C71.1352 35.8105 71.0755 35.9297 70.8072 36.3174C70.5388 36.705 70.0916 37.2715 69.8232 37.7188C68.969 38.9975 68.202 40.3324 67.5273 41.7143C67.1383 42.456 66.7996 43.223 66.5135 44.0102C66.2451 44.696 66.0066 45.3818 65.8277 45.9781C65.4108 47.2616 65.1701 48.5956 65.1121 49.9438Z" fill="white" fill-opacity="0.5"/>
<path d="M43.3456 31.5764C45.0576 32.9815 46.5987 34.5827 47.9374 36.3472C51.1302 40.2215 53.111 44.9506 53.6325 49.9438C55.8069 48.0157 57.7302 45.8218 59.3574 43.4139C60.972 45.8226 62.8856 48.0167 65.0525 49.9438C65.1131 48.6057 65.3538 47.2818 65.7681 46.008C65.947 45.4116 66.1855 44.7258 66.4539 44.04C66.74 43.2529 67.0787 42.4858 67.4677 41.7441C68.1424 40.3622 68.9094 39.0273 69.7636 37.7486C70.032 37.3013 70.3898 36.8242 70.7476 36.3472C71.1054 35.8701 71.3141 35.5719 71.6123 35.2141C71.9104 34.8563 72.7155 33.9916 73.3417 33.3654C73.9678 32.7393 74.6536 32.1429 75.3693 31.5764C75.3693 22.8996 69.853 16.2504 65.0525 9.66077C62.7315 6.70908 60.8161 3.45997 59.3574 0C57.8877 3.4608 55.9624 6.70979 53.6325 9.66077C48.8915 16.2206 43.3456 22.8698 43.3456 31.5764Z" fill="#FFC727"/>
<path opacity="0.7" d="M43.3456 31.5764C45.0576 32.9815 46.5987 34.5827 47.9374 36.3472C51.1302 40.2215 53.111 44.9506 53.6325 49.9438C55.8069 48.0157 57.7302 45.8218 59.3574 43.4139C60.972 45.8226 62.8856 48.0167 65.0525 49.9438C65.1131 48.6057 65.3538 47.2818 65.7681 46.008C65.947 45.4116 66.1855 44.7258 66.4539 44.04C66.74 43.2529 67.0787 42.4858 67.4677 41.7441C68.1424 40.3622 68.9094 39.0273 69.7636 37.7486C70.032 37.3013 70.3898 36.8242 70.7476 36.3472C71.1054 35.8701 71.3141 35.5719 71.6123 35.2141C71.9104 34.8563 72.7155 33.9916 73.3417 33.3654C73.9678 32.7393 74.6536 32.1429 75.3693 31.5764C75.3693 22.8996 69.853 16.2504 65.0525 9.66077C62.7315 6.70908 60.8161 3.45997 59.3574 0C57.8877 3.4608 55.9624 6.70979 53.6325 9.66077C48.8915 16.2206 43.3456 22.8698 43.3456 31.5764Z" fill="white" fill-opacity="0.5"/>
<path d="M21.1914 36.6751C32.5816 41.5353 43.7929 43.9505 49.1898 54.804C50.7701 52.9851 52.1715 51.375 53.6922 49.9438C53.1821 44.9297 51.2006 40.1784 47.9971 36.2875C46.6584 34.523 45.1173 32.9218 43.4052 31.5168C35.9808 25.1955 24.2626 18.8444 20.3565 13.1792C19.295 21.0016 19.5774 28.9478 21.1914 36.6751Z" fill="#FFC727"/>
<path opacity="0.5" d="M21.1914 36.6751C32.5816 41.5353 43.7929 43.9505 49.1898 54.804C50.7701 52.9851 52.1715 51.375 53.6922 49.9438C53.1821 44.9297 51.2006 40.1784 47.9971 36.2875C46.6584 34.523 45.1173 32.9218 43.4052 31.5168C35.9808 25.1955 24.2626 18.8444 20.3565 13.1792C19.295 21.0016 19.5774 28.9478 21.1914 36.6751Z" fill="white" fill-opacity="0.5"/>
<path d="M43.3456 49.437C43.3456 56.8018 49.7861 57.9945 58.6716 57.9945C67.5571 57.9945 75.4587 56.8018 75.4587 49.437C75.4587 42.0721 68.2727 36.0789 59.417 36.0789C50.5613 36.0789 43.3456 42.0721 43.3456 49.437Z" fill="white" fill-opacity="0.5"/>
<path d="M66.3346 49.6158C68.4827 53.0595 70.1481 56.7816 71.2842 60.678C71.7378 62.2978 71.9488 63.9759 71.9104 65.6575C78.9118 64.4892 86.0955 65.1254 92.7825 67.5062C99.7398 63.8053 105.539 58.2538 109.54 51.4645C113.227 44.7698 115.078 37.2195 114.907 29.5787C114.907 28.5649 114.907 27.5809 114.907 26.597C114.907 26.597 110.762 32.7393 96.0027 36.6155L95.1679 36.8243C83.7777 39.6569 72.9839 40.2831 66.3346 49.6158Z" fill="#FFC727"/>
<path opacity="0.3" d="M66.3346 49.6158C68.4827 53.0595 70.1481 56.7816 71.2842 60.678C71.7378 62.2978 71.9488 63.9759 71.9104 65.6575C78.9118 64.4892 86.0955 65.1254 92.7825 67.5062C99.7398 63.8053 105.539 58.2538 109.54 51.4645C113.227 44.7698 115.078 37.2195 114.907 29.5787C114.907 28.5649 114.907 27.5809 114.907 26.597C114.907 26.597 110.762 32.7393 96.0027 36.6155L95.1679 36.8243C83.7777 39.6569 72.9839 40.2831 66.3346 49.6158Z" fill="white" fill-opacity="0.5"/>
<path d="M52.4996 49.6158C50.3515 53.0595 48.686 56.7816 47.5499 60.678C47.0674 62.2918 46.8558 63.9745 46.9237 65.6575C39.9223 64.4892 32.7387 65.1254 26.0517 67.5062C19.0879 63.8142 13.2866 58.2606 9.2944 51.4645C5.62529 44.7664 3.80379 37.2129 4.01674 29.5787C4.01674 28.5649 4.01674 27.5809 4.01674 26.597C4.01674 26.597 8.16133 32.7393 22.9208 36.6155L23.7259 36.8243C35.0565 39.6569 45.8503 40.2831 52.4996 49.6158Z" fill="#FFC727"/>
<path opacity="0.3" d="M52.4996 49.6158C50.3515 53.0595 48.686 56.7816 47.5499 60.678C47.0674 62.2918 46.8558 63.9745 46.9237 65.6575C39.9223 64.4892 32.7387 65.1254 26.0517 67.5062C19.0879 63.8142 13.2866 58.2606 9.2944 51.4645C5.62529 44.7664 3.80379 37.2129 4.01674 29.5787C4.01674 28.5649 4.01674 27.5809 4.01674 26.597C4.01674 26.597 8.16133 32.7393 22.9208 36.6155L23.7259 36.8243C35.0565 39.6569 45.8503 40.2831 52.4996 49.6158Z" fill="white" fill-opacity="0.5"/>
<path d="M67.6465 75.05C69.9972 78.6257 73.4849 81.3045 77.5459 82.6534C82.8079 84.3178 88.4362 84.4419 93.7665 83.0112C99.3423 81.6992 103.964 80.3575 107.333 79.3139C111.329 78.0914 113.595 77.2267 113.595 77.2267C111.411 74.2256 108.923 71.4578 106.17 68.9673C102.631 65.4881 98.2732 62.9553 93.4981 61.6024L92.0967 61.3639C86.1302 60.2125 79.9673 60.6234 74.2064 62.5566C74.447 65.0514 73.9546 67.5623 72.7894 69.7814C71.6242 72.0006 69.8369 73.8316 67.6465 75.05Z" fill="#FFC727"/>
<path opacity="0.15" d="M67.6465 75.05C69.9972 78.6257 73.4849 81.3045 77.5459 82.6534C82.8079 84.3178 88.4362 84.4419 93.7665 83.0112C99.3423 81.6992 103.964 80.3575 107.333 79.3139C111.329 78.0914 113.595 77.2267 113.595 77.2267C111.411 74.2256 108.923 71.4578 106.17 68.9673C102.631 65.4881 98.2732 62.9553 93.4981 61.6024L92.0967 61.3639C86.1302 60.2125 79.9673 60.6234 74.2064 62.5566C74.447 65.0514 73.9546 67.5623 72.7894 69.7814C71.6242 72.0006 69.8369 73.8316 67.6465 75.05Z" fill="black" fill-opacity="0.5"/>
<path d="M5.20935 77.1967C5.20935 77.1967 7.47545 78.0614 11.471 79.2839C14.8403 80.3573 19.462 81.6693 25.0378 82.9813C30.3681 84.412 35.9964 84.2878 41.2584 82.6234C45.3194 81.2745 48.807 78.5958 51.1577 75.02C48.9612 73.812 47.165 71.9893 45.9892 69.7754C44.8135 67.5615 44.3092 65.0527 44.5382 62.5564C38.776 60.6299 32.6149 60.2192 26.6479 61.3638L25.2465 61.6023C20.4847 63.008 16.1494 65.5805 12.6338 69.0864C9.88934 71.53 7.40161 74.2476 5.20935 77.1967Z" fill="#FFC727"/>
<path opacity="0.15" d="M5.20935 77.1967C5.20935 77.1967 7.47545 78.0614 11.471 79.2839C14.8403 80.3573 19.462 81.6693 25.0378 82.9813C30.3681 84.412 35.9964 84.2878 41.2584 82.6234C45.3194 81.2745 48.807 78.5958 51.1577 75.02C48.9612 73.812 47.165 71.9893 45.9892 69.7754C44.8135 67.5615 44.3092 65.0527 44.5382 62.5564C38.776 60.6299 32.6149 60.2192 26.6479 61.3638L25.2465 61.6023C20.4847 63.008 16.1494 65.5805 12.6338 69.0864C9.88934 71.53 7.40161 74.2476 5.20935 77.1967Z" fill="black" fill-opacity="0.5"/>
<path d="M51.1577 79.4032C53.5755 81.0913 56.4533 81.9965 59.4022 81.9965C62.351 81.9965 65.2288 81.0913 67.6466 79.4032C69.9808 77.7342 71.8275 75.4728 72.9963 72.8521C74.1651 70.2314 74.6137 67.3465 74.2959 64.4946C74.1322 62.8387 73.7408 61.2132 73.133 59.6642C71.7135 56.0369 69.8292 52.6091 67.5274 49.4667C66.3049 47.7373 65.0823 46.2167 63.9791 44.8451L61.9516 42.4001C61.647 42.0207 61.2612 41.7145 60.8225 41.5042C60.3838 41.2938 59.9036 41.1846 59.4171 41.1846C58.9306 41.1846 58.4503 41.2938 58.0117 41.5042C57.573 41.7145 57.1871 42.0207 56.8826 42.4001L54.8252 44.8451C53.722 46.2167 52.4995 47.8268 51.2471 49.4667C48.9666 52.6176 47.0932 56.0438 45.6713 59.6642C45.0586 61.21 44.6768 62.8376 44.5383 64.4946C44.2203 67.3434 44.6658 70.2255 45.829 72.8454C46.9922 75.4652 48.8313 77.7285 51.1577 79.4032Z" fill="#FFC727"/>
</g>
<defs>
<filter id="filter0_d_13_2949" x="0" y="0" width="118.918" height="92" filterUnits="userSpaceOnUse" color-interpolation-filters="sRGB">
<feFlood flood-opacity="0" result="BackgroundImageFix"/>
<feColorMatrix in="SourceAlpha" type="matrix" values="0 0 0 0 0 0 0 0 0 0 0 0 0 0 0 0 0 0 127 0" result="hardAlpha"/>
<feOffset dy="4"/>
<feGaussianBlur stdDeviation="2"/>
<feComposite in2="hardAlpha" operator="out"/>
<feColorMatrix type="matrix" values="0 0 0 0 0 0 0 0 0 0 0 0 0 0 0 0 0 0 0.25 0"/>
<feBlend mode="normal" in2="BackgroundImageFix" result="effect1_dropShadow_13_2949"/>
<feBlend mode="normal" in="SourceGraphic" in2="effect1_dropShadow_13_2949" result="shape"/>
</filter>
</defs>
</svg>
