<svg width="12510" height="7911" viewBox="0 0 12510 7911" fill="none" xmlns="http://www.w3.org/2000/svg">
<path d="M273.775 5584.21H12222" stroke="#263238" stroke-miterlimit="10" stroke-linecap="round"/>
<path d="M9910.19 301.645H7366.44V4947.41H9910.19V301.645Z" stroke="#263238" stroke-miterlimit="10" stroke-linecap="round"/>
<path d="M9788.48 461.058H7487.97V3112.79H9788.48V461.058Z" stroke="#263238" stroke-miterlimit="10" stroke-linecap="round"/>
<path d="M9788.48 3301.86H7487.97V4788H9788.48V3301.86Z" stroke="#263238" stroke-miterlimit="10" stroke-linecap="round"/>
<path d="M8023.12 461.915V3099.94" stroke="#263238" stroke-miterlimit="10" stroke-linecap="round"/>
<path d="M8642.94 461.915V3099.94" stroke="#263238" stroke-miterlimit="10" stroke-linecap="round"/>
<path d="M9262.77 461.915V3099.94" stroke="#263238" stroke-miterlimit="10" stroke-linecap="round"/>
<path d="M8023.12 3289.86V4791.26" stroke="#263238" stroke-miterlimit="10" stroke-linecap="round"/>
<path d="M8642.94 3289.86V4791.26" stroke="#263238" stroke-miterlimit="10" stroke-linecap="round"/>
<path d="M9262.77 3289.86V4791.26" stroke="#263238" stroke-miterlimit="10" stroke-linecap="round"/>
<path d="M7483.69 967.236H9786.77" stroke="#263238" stroke-miterlimit="10" stroke-linecap="round"/>
<path d="M7483.69 1525.35H9786.77" stroke="#263238" stroke-miterlimit="10" stroke-linecap="round"/>
<path d="M7483.69 2083.47H9786.77" stroke="#263238" stroke-miterlimit="10" stroke-linecap="round"/>
<path d="M7483.69 2641.58H9786.77" stroke="#263238" stroke-miterlimit="10" stroke-linecap="round"/>
<path d="M7483.69 3852.95H9786.77" stroke="#263238" stroke-miterlimit="10" stroke-linecap="round"/>
<path d="M7483.69 4344.39H9786.77" stroke="#263238" stroke-miterlimit="10" stroke-linecap="round"/>
<path d="M5058.9 301.645H2515.15V4947.41H5058.9V301.645Z" stroke="#263238" stroke-miterlimit="10" stroke-linecap="round"/>
<path d="M4937.2 461.058H2636.68V3112.79H4937.2V461.058Z" stroke="#263238" stroke-miterlimit="10" stroke-linecap="round"/>
<path d="M4937.2 3301.86H2636.68V4788H4937.2V3301.86Z" stroke="#263238" stroke-miterlimit="10" stroke-linecap="round"/>
<path d="M3171.83 461.915V3099.94" stroke="#263238" stroke-miterlimit="10" stroke-linecap="round"/>
<path d="M3791.65 461.915V3099.94" stroke="#263238" stroke-miterlimit="10" stroke-linecap="round"/>
<path d="M4411.48 461.915V3099.94" stroke="#263238" stroke-miterlimit="10" stroke-linecap="round"/>
<path d="M3171.83 3289.86V4791.26" stroke="#263238" stroke-miterlimit="10" stroke-linecap="round"/>
<path d="M3791.65 3289.86V4791.26" stroke="#263238" stroke-miterlimit="10" stroke-linecap="round"/>
<path d="M4411.48 3289.86V4791.26" stroke="#263238" stroke-miterlimit="10" stroke-linecap="round"/>
<path d="M2632.4 967.236H4935.48" stroke="#263238" stroke-miterlimit="10" stroke-linecap="round"/>
<path d="M2632.4 1525.35H4935.48" stroke="#263238" stroke-miterlimit="10" stroke-linecap="round"/>
<path d="M2632.4 2083.47H4935.48" stroke="#263238" stroke-miterlimit="10" stroke-linecap="round"/>
<path d="M2632.4 2641.58H4935.48" stroke="#263238" stroke-miterlimit="10" stroke-linecap="round"/>
<path d="M2632.4 3852.95H4935.48" stroke="#263238" stroke-miterlimit="10" stroke-linecap="round"/>
<path d="M2632.4 4344.39H4935.48" stroke="#263238" stroke-miterlimit="10" stroke-linecap="round"/>
<path d="M11475.3 3496.58C11571.4 3496.58 11649.3 3292.37 11649.3 3040.46C11649.3 2788.55 11571.4 2584.33 11475.3 2584.33C11379.3 2584.33 11301.4 2788.55 11301.4 3040.46C11301.4 3292.37 11379.3 3496.58 11475.3 3496.58Z" fill="#E76F51" stroke="#263238" stroke-miterlimit="10"/>
<path d="M10935.1 2759.17C10989.4 2930.58 11093.8 3050.57 11168.3 3026.23C11242.9 3001.89 11259 2844.71 11204.7 2673.47C11150.3 2502.23 11045.8 2382.07 10971.4 2406.58C10897 2431.09 10880.5 2588.1 10935.1 2759.17Z" fill="#E76F51" stroke="#263238" stroke-miterlimit="10"/>
<path d="M12211 3791.07C12388.1 3761.07 12521 3674.17 12507.9 3597.2C12494.9 3520.24 12340.8 3482.01 12163.7 3511.5C11986.7 3540.98 11853.3 3628.74 11866.8 3705.88C11880.4 3783.01 12034 3821.07 12211 3791.07Z" fill="#E76F51" stroke="#263238" stroke-miterlimit="10"/>
<path d="M10771.2 3369.91C10919.1 3516.64 11093.8 3580.23 11161.5 3512.01C11229.2 3443.79 11164.1 3269.64 11016.1 3123.08C10868.2 2976.52 10693.7 2912.76 10626 2980.98C10558.3 3049.2 10623.4 3222.67 10771.2 3369.91Z" fill="#E76F51" stroke="#263238" stroke-miterlimit="10"/>
<path d="M11790.1 2967.09C11647.1 3174.5 11604.4 3393.22 11694.9 3455.45C11785.4 3517.67 11974.5 3400.25 12117.5 3192.67C12260.4 2985.09 12303.1 2766.71 12212.6 2704.32C12122.1 2641.93 11933 2759.69 11790.1 2967.09Z" fill="#E76F51" stroke="#263238" stroke-miterlimit="10"/>
<path d="M11463.2 3473.96L11449.6 4861.53" stroke="#263238" stroke-miterlimit="10" stroke-linecap="round"/>
<path d="M11479.3 2870.93L11463.2 3473.96" stroke="#263238" stroke-miterlimit="10" stroke-linecap="round"/>
<path d="M11478.3 2772.54L11479.3 2818.65" stroke="#263238" stroke-miterlimit="10" stroke-linecap="round"/>
<path d="M11695.6 3425.96C11596 3631.99 11537.7 3855.56 11524.2 4084.01V4942.27" stroke="#263238" stroke-miterlimit="10" stroke-linecap="round"/>
<path d="M11994.4 2968.81C11874.9 3107.26 11774.5 3260.99 11695.6 3425.96" stroke="#263238" stroke-miterlimit="10" stroke-linecap="round"/>
<path d="M12088.3 2869.39C12088.3 2869.39 12070.3 2886.53 12040.7 2917.38" stroke="#263238" stroke-miterlimit="10" stroke-linecap="round"/>
<path d="M11150.5 3489.9C11272.5 3660.91 11367.5 3849.6 11432.3 4049.39" stroke="#263238" stroke-miterlimit="10" stroke-linecap="round"/>
<path d="M10950.5 3260.38C11024.1 3330.51 11091.1 3407.35 11150.5 3489.9" stroke="#263238" stroke-miterlimit="10" stroke-linecap="round"/>
<path d="M10736.9 3097.54C10791.3 3128.18 10842.4 3164.37 10889.3 3205.53" stroke="#263238" stroke-miterlimit="10" stroke-linecap="round"/>
<path d="M11157.9 2983.72C11254.2 3286.95 11383.6 3735.02 11444 4123.95" stroke="#263238" stroke-miterlimit="10" stroke-linecap="round"/>
<path d="M11099.1 2804.25C11116.2 2855.68 11136.1 2916.18 11157.7 2984.06" stroke="#263238" stroke-miterlimit="10" stroke-linecap="round"/>
<path d="M11039.1 2629.93C11039.1 2629.93 11056.2 2676.38 11083 2755.92" stroke="#263238" stroke-miterlimit="10" stroke-linecap="round"/>
<path d="M11875.8 3663.71C11755.8 3709.48 11590.9 3836.66 11533.8 4003.45" stroke="#263238" stroke-miterlimit="10" stroke-linecap="round"/>
<path d="M12098.3 3618.63C12022.1 3622.38 11947 3637.58 11875.4 3663.71" stroke="#263238" stroke-miterlimit="10" stroke-linecap="round"/>
<path d="M12242.2 3622.06C12242.2 3622.06 12220.8 3619.14 12185.5 3617.6" stroke="#263238" stroke-miterlimit="10" stroke-linecap="round"/>
<path d="M11863.8 4458.03C12026.4 4533.97 12185.2 4538.08 12218.2 4467.29C12251.3 4396.49 12146.3 4277.53 11983.6 4201.6C11820.9 4125.66 11662.2 4121.55 11629.1 4192.34C11596 4263.14 11701.1 4382.1 11863.8 4458.03Z" fill="#E76F51" stroke="#263238" stroke-miterlimit="10"/>
<path d="M11868.9 4251.99C11804.3 4211.94 11733.9 4181.88 11660.3 4162.86C11643.4 4152.52 11623.9 4147.22 11604 4147.58C11584.2 4147.95 11564.9 4153.96 11548.4 4164.92C11526.4 4179.49 11533.8 4289.53 11533.8 4289.53V4861.19" stroke="#263238" stroke-miterlimit="10" stroke-linecap="round"/>
<path d="M11985.5 4336.84C11985.5 4336.84 11969.5 4322.1 11941.2 4300.85" stroke="#263238" stroke-miterlimit="10" stroke-linecap="round"/>
<path d="M10696.1 3791.07C10519.2 3761.07 10386.2 3674.17 10399.2 3597.2C10412.3 3520.24 10566.4 3482.01 10743.4 3511.5C10920.5 3540.98 11053.3 3628.23 11040.3 3705.36C11027.3 3782.5 10873.2 3821.07 10696.1 3791.07Z" fill="#E76F51" stroke="#263238" stroke-miterlimit="10"/>
<path d="M11027.6 3662.34C11049.2 3670.34 11070.2 3679.61 11090.7 3690.11C11162.3 3727.78 11222.1 3784.4 11263.7 3853.78C11305.2 3923.15 11326.9 4002.62 11326.4 4083.5V4839.59" stroke="#263238" stroke-miterlimit="10" stroke-linecap="round"/>
<path d="M10790.6 3617.6C10871.5 3620.08 10951.5 3635.17 11027.8 3662.34" stroke="#263238" stroke-miterlimit="10" stroke-linecap="round"/>
<path d="M10664.9 3622.06C10664.9 3622.06 10679.1 3620.17 10703.3 3618.63" stroke="#263238" stroke-miterlimit="10" stroke-linecap="round"/>
<path d="M10873.9 4308.9C10718.4 4398.72 10560.5 4416.38 10521.6 4348.67C10482.7 4280.96 10577 4153.43 10732.6 4063.78C10888.3 3974.14 11046 3956.31 11084.9 4024.02C11123.8 4091.72 11029.5 4219.26 10873.9 4308.9Z" fill="#E76F51" stroke="#263238" stroke-miterlimit="10"/>
<path d="M10836.2 4115.38C10900.1 4065.64 10971.5 4026.25 11047.7 3998.65C11047.7 3998.65 11240.7 3966.94 11284.7 4091.55" stroke="#263238" stroke-miterlimit="10" stroke-linecap="round"/>
<path d="M10742.2 4198.69C10742.2 4198.69 10751.8 4188.23 10769.6 4171.6" stroke="#263238" stroke-miterlimit="10" stroke-linecap="round"/>
<path d="M11255.1 4098.92C11255.1 4098.92 11482.4 4054.87 11482.4 4208.8C11482.4 4362.73 11321.9 4487.51 11255.1 4663.55C11188.2 4839.59 11064.3 4846.96 10998 4670.92C10931.6 4494.88 11027.6 4172.29 11255.1 4098.92Z" fill="#E76F51" stroke="#263238" stroke-miterlimit="10"/>
<path d="M11409 4106.98C11409 4106.98 11211 4187.72 11151.9 4444.49Z" fill="#E76F51"/>
<path d="M11409 4106.98C11409 4106.98 11211 4187.72 11151.9 4444.49" stroke="#263238" stroke-miterlimit="10"/>
<path d="M11394.4 4443.63V4861.53" stroke="#263238" stroke-miterlimit="10" stroke-linecap="round"/>
<path d="M11030.5 5675.74C10976.1 5502.57 10948.3 5322.12 10948.3 5140.59C10948 5030.68 10959 4921.03 10981.2 4813.37H11906.8C11928.9 4921.03 11940 5030.68 11939.7 5140.59C11939.6 5322.12 11911.9 5502.57 11857.4 5675.74H11030.5Z" fill="#263238"/>
<path d="M11931 4966.44C11933.5 4991.46 11935.6 5017 11937.1 5042.89H10950.8C10952.4 5017 10954.4 4991.46 10957 4966.44H11931Z" fill="#7A7A7A"/>
<path d="M10962 5357.26C10958.9 5331.89 10956.3 5305.83 10954.3 5280.81H11935.1C11933 5306.52 11930.4 5332.23 11927.4 5357.26H10962Z" fill="#7A7A7A"/>
<path d="M11820.4 5144.88C11820.1 5152.84 11822.2 5160.7 11826.5 5167.45C11830.7 5174.19 11836.8 5179.53 11844.1 5182.76C11851.4 5185.99 11859.5 5186.96 11867.3 5185.57C11875.2 5184.17 11882.4 5180.46 11888.1 5174.92C11893.8 5169.37 11897.8 5162.25 11899.4 5154.45C11901 5146.66 11900.3 5138.55 11897.3 5131.18C11894.3 5123.8 11889.2 5117.49 11882.5 5113.06C11875.9 5108.63 11868.1 5106.28 11860.2 5106.31C11849.8 5106.17 11839.8 5110.15 11832.3 5117.38C11824.9 5124.61 11820.6 5134.5 11820.4 5144.88V5144.88Z" fill="#8C8C8C"/>
<path d="M11620.7 5144.88C11620.4 5152.83 11622.5 5160.68 11626.8 5167.43C11631 5174.17 11637.1 5179.5 11644.4 5182.74C11651.7 5185.97 11659.7 5186.96 11667.6 5185.58C11675.4 5184.2 11682.6 5180.51 11688.4 5174.98C11694.1 5169.45 11698 5162.34 11699.7 5154.56C11701.3 5146.78 11700.6 5138.68 11697.7 5131.3C11694.7 5123.92 11689.6 5117.6 11683 5113.15C11676.4 5108.69 11668.6 5106.31 11660.6 5106.31C11650.2 5106.17 11640.2 5110.15 11632.7 5117.37C11625.3 5124.59 11620.9 5134.48 11620.7 5144.88V5144.88Z" fill="#8C8C8C"/>
<path d="M11421.2 5144.88C11420.9 5152.83 11423 5160.68 11427.2 5167.43C11431.5 5174.17 11437.6 5179.5 11444.9 5182.74C11452.1 5185.97 11460.2 5186.96 11468 5185.58C11475.9 5184.2 11483.1 5180.51 11488.8 5174.98C11494.6 5169.45 11498.5 5162.34 11500.2 5154.56C11501.8 5146.78 11501.1 5138.68 11498.1 5131.3C11495.2 5123.92 11490 5117.6 11483.4 5113.15C11476.8 5108.69 11469.1 5106.31 11461.1 5106.31C11456 5106.22 11450.8 5107.14 11446 5109.03C11441.2 5110.92 11436.9 5113.74 11433.2 5117.32C11429.5 5120.9 11426.5 5125.18 11424.4 5129.91C11422.4 5134.63 11421.3 5139.72 11421.2 5144.88Z" fill="#8C8C8C"/>
<path d="M11221.7 5144.88C11221.4 5152.83 11223.5 5160.68 11227.7 5167.43C11231.9 5174.17 11238.1 5179.5 11245.3 5182.74C11252.6 5185.97 11260.7 5186.96 11268.5 5185.58C11276.3 5184.2 11283.6 5180.51 11289.3 5174.98C11295 5169.45 11299 5162.34 11300.6 5154.56C11302.3 5146.78 11301.6 5138.68 11298.6 5131.3C11295.6 5123.92 11290.5 5117.6 11283.9 5113.15C11277.3 5108.69 11269.6 5106.31 11261.6 5106.31C11256.4 5106.22 11251.3 5107.14 11246.5 5109.03C11241.7 5110.92 11237.3 5113.74 11233.6 5117.32C11229.9 5120.9 11227 5125.18 11224.9 5129.91C11222.8 5134.63 11221.7 5139.72 11221.7 5144.88V5144.88Z" fill="#8C8C8C"/>
<path d="M11022 5144.88C11021.7 5152.83 11023.8 5160.68 11028 5167.43C11032.2 5174.17 11038.4 5179.5 11045.6 5182.74C11052.9 5185.97 11061 5186.96 11068.8 5185.58C11076.7 5184.2 11083.9 5180.51 11089.6 5174.98C11095.3 5169.45 11099.3 5162.34 11100.9 5154.56C11102.6 5146.78 11101.9 5138.68 11098.9 5131.3C11095.9 5123.92 11090.8 5117.6 11084.2 5113.15C11077.6 5108.69 11069.9 5106.31 11061.9 5106.31C11051.5 5106.17 11041.5 5110.15 11034 5117.37C11026.5 5124.59 11022.2 5134.48 11022 5144.88V5144.88Z" fill="#8C8C8C"/>
<path d="M1208.65 3040.46C1208.65 3292.43 1130.83 3496.76 1034.67 3496.76C938.509 3496.76 860.86 3292.43 860.86 3040.46C860.86 2788.48 938.68 2584.33 1034.67 2584.33C1130.66 2584.33 1208.65 2788.65 1208.65 3040.46Z" fill="#E76F51" stroke="#263238" stroke-miterlimit="10"/>
<path d="M1574.45 2759.17C1519.94 2930.58 1415.55 3050.57 1341.15 3026.23C1266.76 3001.89 1250.31 2844.71 1304.64 2673.47C1358.98 2502.23 1463.54 2382.07 1537.93 2406.58C1612.33 2431.09 1628.78 2588.1 1574.45 2759.17Z" fill="#E76F51" stroke="#263238" stroke-miterlimit="10"/>
<path d="M298.287 3791.07C121.219 3761.07 -11.6249 3674.17 1.40234 3597.2C14.4296 3520.24 168.529 3482.01 345.597 3511.5C522.665 3540.98 655.509 3628.74 642.996 3705.88C630.483 3783.01 475.355 3821.07 298.287 3791.07Z" fill="#E76F51" stroke="#263238" stroke-miterlimit="10"/>
<path d="M1738.14 3369.91C1590.22 3516.64 1415.55 3580.23 1348.01 3512.01C1280.48 3443.79 1345.78 3268.95 1493.2 3122.39C1640.61 2975.84 1815.79 2912.07 1883.33 2980.29C1950.87 3048.51 1885.9 3222.67 1738.14 3369.91Z" fill="#E76F51" stroke="#263238" stroke-miterlimit="10"/>
<path d="M719.274 2967.09C862.231 3174.5 904.912 3393.22 814.407 3455.62C723.902 3518.01 534.835 3400.42 391.878 3192.84C248.92 2985.26 206.239 2766.89 296.744 2704.49C387.25 2642.1 576.316 2759.69 719.274 2967.09Z" fill="#E76F51" stroke="#263238" stroke-miterlimit="10"/>
<path d="M1046.16 3473.96L1059.7 4861.53" stroke="#263238" stroke-miterlimit="10" stroke-linecap="round"/>
<path d="M1030.04 2870.93L1046.16 3473.96" stroke="#263238" stroke-miterlimit="10" stroke-linecap="round"/>
<path d="M1031.24 2772.54L1030.04 2818.65" stroke="#263238" stroke-miterlimit="10" stroke-linecap="round"/>
<path d="M814.407 3425.96C914.036 3631.99 972.273 3855.56 985.819 4084.01V4942.27" stroke="#263238" stroke-miterlimit="10" stroke-linecap="round"/>
<path d="M515.123 2968.81C634.741 3107.23 735.387 3260.96 814.407 3425.96" stroke="#263238" stroke-miterlimit="10" stroke-linecap="round"/>
<path d="M421.018 2869.39C421.018 2869.39 439.016 2886.53 468.67 2917.38" stroke="#263238" stroke-miterlimit="10" stroke-linecap="round"/>
<path d="M1358.81 3489.9C1236.8 3660.9 1141.71 3849.59 1076.84 4049.39" stroke="#263238" stroke-miterlimit="10" stroke-linecap="round"/>
<path d="M1558.85 3260.38C1485.23 3330.55 1418.27 3407.39 1358.81 3489.9" stroke="#263238" stroke-miterlimit="10" stroke-linecap="round"/>
<path d="M1772.43 3097.54C1718.04 3128.18 1666.98 3164.37 1620.04 3205.53" stroke="#263238" stroke-miterlimit="10" stroke-linecap="round"/>
<path d="M1351.44 2983.72C1255.11 3286.95 1125.69 3735.02 1065.35 4124.12" stroke="#263238" stroke-miterlimit="10" stroke-linecap="round"/>
<path d="M1410.06 2804.25C1392.92 2855.68 1373.04 2916.18 1351.44 2984.06" stroke="#263238" stroke-miterlimit="10" stroke-linecap="round"/>
<path d="M1470.23 2629.93C1470.23 2629.93 1453.09 2676.38 1426.35 2755.92" stroke="#263238" stroke-miterlimit="10" stroke-linecap="round"/>
<path d="M633.568 3663.71C753.556 3709.48 918.454 3836.66 976.391 4003.45" stroke="#263238" stroke-miterlimit="10" stroke-linecap="round"/>
<path d="M411.247 3618.63C487.372 3622.35 562.498 3637.55 634.082 3663.71" stroke="#263238" stroke-miterlimit="10" stroke-linecap="round"/>
<path d="M267.09 3622.06C267.09 3622.06 288.517 3619.14 323.827 3617.6" stroke="#263238" stroke-miterlimit="10" stroke-linecap="round"/>
<path d="M645.567 4458.03C482.897 4533.97 324.17 4538.08 291.088 4467.29C258.005 4396.49 363.081 4277.53 525.75 4201.6C688.42 4125.66 847.147 4121.55 880.229 4192.34C913.312 4263.14 808.236 4382.1 645.567 4458.03Z" fill="#E76F51" stroke="#263238" stroke-miterlimit="10"/>
<path d="M640.424 4251.99C704.963 4211.97 775.176 4181.92 848.689 4162.86C865.609 4152.52 885.128 4147.22 904.955 4147.58C924.781 4147.95 944.093 4153.96 960.621 4164.92C982.562 4179.49 975.362 4289.53 975.362 4289.53V4861.19" stroke="#263238" stroke-miterlimit="10" stroke-linecap="round"/>
<path d="M523.865 4336.84C523.865 4336.84 539.806 4322.1 568.089 4300.85" stroke="#263238" stroke-miterlimit="10" stroke-linecap="round"/>
<path d="M1813.22 3791.07C1990.29 3761.07 2123.13 3674.17 2110.11 3597.2C2097.08 3520.24 1942.98 3482.01 1765.91 3511.5C1588.84 3540.98 1456 3628.74 1469.03 3705.88C1482.06 3783.01 1636.15 3821.07 1813.22 3791.07Z" fill="#E76F51" stroke="#263238" stroke-miterlimit="10"/>
<path d="M1481.71 3662.34C1460.17 3670.38 1439.11 3679.65 1418.63 3690.11C1347.07 3727.78 1287.23 3784.4 1245.66 3853.78C1204.1 3923.15 1182.4 4002.62 1182.94 4083.5V4839.59" stroke="#263238" stroke-miterlimit="10" stroke-linecap="round"/>
<path d="M1718.95 3617.6C1638.02 3620.08 1557.98 3635.17 1481.71 3662.34" stroke="#263238" stroke-miterlimit="10" stroke-linecap="round"/>
<path d="M1844.42 3622.06C1844.42 3622.06 1830.19 3620.17 1806.02 3618.63" stroke="#263238" stroke-miterlimit="10" stroke-linecap="round"/>
<path d="M1635.47 4308.9C1791.11 4398.72 1948.81 4416.38 1987.72 4348.67C2026.63 4280.96 1932.35 4153.43 1776.71 4063.78C1621.07 3974.14 1463.54 3956.31 1424.46 4024.02C1385.38 4091.72 1480 4219.26 1635.47 4308.9Z" fill="#E76F51" stroke="#263238" stroke-miterlimit="10"/>
<path d="M1673.18 4115.38C1609.32 4065.67 1538.06 4026.28 1462 3998.65C1462 3998.65 1268.99 3966.94 1225.79 4091.55" stroke="#263238" stroke-miterlimit="10" stroke-linecap="round"/>
<path d="M1767.11 4198.69C1767.11 4198.69 1757.51 4188.23 1739.86 4171.6" stroke="#263238" stroke-miterlimit="10" stroke-linecap="round"/>
<path d="M1254.25 4098.92C1254.25 4098.92 1026.96 4055.56 1026.96 4208.8C1026.96 4362.04 1188.26 4487.51 1254.25 4663.55C1320.24 4839.59 1445.03 4846.96 1511.37 4670.92C1577.7 4494.88 1481.71 4172.29 1254.25 4098.92Z" fill="#E76F51" stroke="#263238" stroke-miterlimit="10"/>
<path d="M1100.32 4106.98C1100.32 4106.98 1298.3 4187.72 1357.44 4444.49Z" fill="#E76F51"/>
<path d="M1100.32 4106.98C1100.32 4106.98 1298.3 4187.72 1357.44 4444.49" stroke="#263238" stroke-miterlimit="10"/>
<path d="M1115.06 4443.63V4861.53" stroke="#263238" stroke-miterlimit="10" stroke-linecap="round"/>
<path d="M1479.14 5675.74C1533.6 5502.57 1561.35 5322.12 1561.42 5140.59C1561.69 5030.68 1550.66 4921.03 1528.51 4813.37H602.885C580.587 4921.02 569.33 5030.66 569.289 5140.59C569.358 5322.12 597.103 5502.57 651.566 5675.74H1479.14Z" fill="#263238"/>
<path d="M578.373 4966.44C575.802 4991.46 573.745 5017 572.203 5042.89H1558.5C1556.96 5017 1554.9 4991.46 1552.33 4966.44H578.373Z" fill="#7A7A7A"/>
<path d="M1548.05 5357.26C1551.13 5331.89 1553.88 5305.83 1555.93 5280.81H574.431C576.488 5306.52 579.059 5332.23 582.316 5357.26H1548.05Z" fill="#7A7A7A"/>
<path d="M689.105 5144.88C689.378 5152.83 687.27 5160.68 683.051 5167.43C678.832 5174.17 672.694 5179.5 665.424 5182.74C658.155 5185.97 650.085 5186.96 642.249 5185.58C634.414 5184.2 627.17 5180.51 621.446 5174.98C615.723 5169.45 611.781 5162.34 610.125 5154.56C608.47 5146.78 609.176 5138.68 612.155 5131.3C615.133 5123.92 620.247 5117.6 626.842 5113.15C633.436 5108.69 641.21 5106.31 649.166 5106.31C659.564 5106.17 669.596 5110.15 677.076 5117.37C684.556 5124.59 688.88 5134.48 689.105 5144.88V5144.88Z" fill="#8C8C8C"/>
<path d="M888.628 5144.88C888.902 5152.83 886.793 5160.68 882.574 5167.43C878.355 5174.17 872.217 5179.5 864.948 5182.74C857.678 5185.97 849.608 5186.96 841.773 5185.58C833.937 5184.2 826.693 5180.51 820.97 5174.98C815.246 5169.45 811.304 5162.34 809.648 5154.56C807.993 5146.78 808.7 5138.68 811.678 5131.3C814.656 5123.92 819.77 5117.6 826.365 5113.15C832.959 5108.69 840.733 5106.31 848.69 5106.31C853.845 5106.22 858.967 5107.14 863.764 5109.03C868.561 5110.92 872.939 5113.74 876.648 5117.32C880.357 5120.9 883.324 5125.18 885.38 5129.91C887.435 5134.63 888.539 5139.72 888.628 5144.88V5144.88Z" fill="#8C8C8C"/>
<path d="M1088.67 5144.88C1088.94 5152.83 1086.83 5160.68 1082.61 5167.43C1078.39 5174.17 1072.25 5179.5 1064.98 5182.74C1057.72 5185.97 1049.65 5186.96 1041.81 5185.58C1033.97 5184.2 1026.73 5180.51 1021.01 5174.98C1015.28 5169.45 1011.34 5162.34 1009.69 5154.56C1008.03 5146.78 1008.74 5138.68 1011.72 5131.3C1014.69 5123.92 1019.81 5117.6 1026.4 5113.15C1033 5108.69 1040.77 5106.31 1048.73 5106.31C1053.88 5106.22 1059 5107.14 1063.8 5109.03C1068.6 5110.92 1072.98 5113.74 1076.69 5117.32C1080.39 5120.9 1083.36 5125.18 1085.42 5129.91C1087.47 5134.63 1088.58 5139.72 1088.67 5144.88V5144.88Z" fill="#8C8C8C"/>
<path d="M1287.85 5144.88C1288.12 5152.83 1286.01 5160.68 1281.79 5167.43C1277.57 5174.17 1271.43 5179.5 1264.16 5182.74C1256.9 5185.97 1248.83 5186.96 1240.99 5185.58C1233.15 5184.2 1225.91 5180.51 1220.19 5174.98C1214.46 5169.45 1210.52 5162.34 1208.87 5154.56C1207.21 5146.78 1207.92 5138.68 1210.9 5131.3C1213.87 5123.92 1218.99 5117.6 1225.58 5113.15C1232.18 5108.69 1239.95 5106.31 1247.91 5106.31C1258.3 5106.17 1268.34 5110.15 1275.82 5117.37C1283.3 5124.59 1287.62 5134.48 1287.85 5144.88V5144.88Z" fill="#8C8C8C"/>
<path d="M1487.37 5144.88C1487.64 5152.83 1485.53 5160.68 1481.31 5167.43C1477.1 5174.17 1470.96 5179.5 1463.69 5182.74C1456.42 5185.97 1448.35 5186.96 1440.51 5185.58C1432.68 5184.2 1425.43 5180.51 1419.71 5174.98C1413.99 5169.45 1410.04 5162.34 1408.39 5154.56C1406.73 5146.78 1407.44 5138.68 1410.42 5131.3C1413.4 5123.92 1418.51 5117.6 1425.1 5113.15C1431.7 5108.69 1439.47 5106.31 1447.43 5106.31C1452.58 5106.22 1457.71 5107.14 1462.5 5109.03C1467.3 5110.92 1471.68 5113.74 1475.39 5117.32C1479.1 5120.9 1482.06 5125.18 1484.12 5129.91C1486.18 5134.63 1487.28 5139.72 1487.37 5144.88V5144.88Z" fill="#8C8C8C"/>
<path d="M8108.99 5808.75C8190.47 6005.42 8271.72 6202.49 8352.74 6399.95L11399.6 6400.98C11174.5 6209.86 10978.9 6003.99 10769 5808.75H8108.99Z" fill="#E76F51" stroke="#263238" stroke-miterlimit="10" stroke-linecap="round"/>
<path d="M9272.02 4060.19C9272.02 4060.19 9060.33 4071.84 8985.25 4114.01C8910.17 4156.18 8895.94 4405.41 8895.94 4405.41L8604.55 4979.29C8604.55 4979.29 8058.94 5112.31 7992.95 5122.25C7926.96 5132.19 7881.7 5114.19 7822.74 5130.48C7763.77 5146.76 7760.86 5155.85 7716.81 5204.7C7672.75 5253.55 7653.73 5300 7670.87 5309.09C7688.01 5318.17 7729.32 5281.32 7741.83 5267.44C7756.88 5253.34 7772.92 5240.33 7789.83 5228.53C7789.83 5228.53 7758.12 5330.52 7743.89 5379.02C7714.58 5480.67 7693.84 5298.63 7668.12 5318.52C7634.7 5344.23 7658.01 5493.53 7743.55 5475.87C7829.08 5458.22 7871.25 5460.27 7905.53 5415.36C7939.81 5370.45 8014.03 5260.24 8014.03 5260.24C8014.03 5260.24 8319.32 5239.15 8493.99 5220.3C8668.65 5201.44 8823.27 5120.54 8881.38 5064.48C8932.8 5014.6 9107.12 4644.18 9107.12 4644.18L9266.71 4222C9266.71 4222 9310.07 4133.21 9272.02 4060.19Z" fill="white" stroke="#263238" stroke-miterlimit="10" stroke-linecap="round"/>
<path d="M7754.34 5431.82C7744.95 5439.88 7735.04 5447.32 7724.69 5454.1C7708.98 5461.36 7692.19 5465.99 7674.98 5467.82C7631.27 5473.99 7615.67 5492.33 7626.13 5503.98C7636.58 5515.64 7655.78 5513.41 7696.06 5513.41C7726.21 5512.33 7755.37 5502.37 7779.88 5484.79C7792.59 5476.08 7804.11 5465.77 7814.17 5454.1" fill="white"/>
<path d="M7754.34 5431.82C7744.95 5439.88 7735.04 5447.32 7724.69 5454.1C7708.98 5461.36 7692.19 5465.99 7674.98 5467.82C7631.27 5473.99 7615.67 5492.33 7626.13 5503.98C7636.58 5515.64 7655.78 5513.41 7696.06 5513.41C7726.21 5512.33 7755.37 5502.37 7779.88 5484.79C7792.59 5476.08 7804.11 5465.77 7814.17 5454.1" stroke="#263238" stroke-miterlimit="10" stroke-linecap="round"/>
<path d="M7798.23 5434.91C7789.95 5444.11 7781.07 5452.76 7771.66 5460.79C7757.77 5471.36 7741.44 5478.25 7724.18 5480.84C7702.06 5483.76 7668.47 5512.73 7680.47 5522.84C7692.46 5532.95 7710.98 5528.5 7750.92 5522.84C7780.68 5517.92 7808.3 5504.25 7830.28 5483.59C7841.61 5473.49 7851.58 5461.97 7859.93 5449.3" fill="white"/>
<path d="M7798.23 5434.91C7789.95 5444.11 7781.07 5452.76 7771.66 5460.79C7757.77 5471.36 7741.44 5478.25 7724.18 5480.84C7702.06 5483.76 7668.47 5512.73 7680.47 5522.84C7692.46 5532.95 7710.98 5528.5 7750.92 5522.84C7780.68 5517.92 7808.3 5504.25 7830.28 5483.59C7841.61 5473.49 7851.58 5461.97 7859.93 5449.3" stroke="#263238" stroke-miterlimit="10" stroke-linecap="round"/>
<path d="M7927.98 5189.27C7927.98 5189.27 7891.3 5197.5 7865.93 5255.27C7840.56 5313.03 7857.71 5423.59 7841.42 5430.79C7824.56 5436.29 7806.27 5435.44 7790 5428.39C7770.46 5422.91 7738.57 5418.62 7746.46 5441.93C7762.4 5493.36 7850.51 5473.3 7850.51 5473.3C7850.51 5473.3 7863.88 5471.42 7896.96 5424.45C7930.04 5377.48 8003.92 5270.18 8003.92 5270.18" fill="white"/>
<path d="M7927.98 5189.27C7927.98 5189.27 7891.3 5197.5 7865.93 5255.27C7840.56 5313.03 7857.71 5423.59 7841.42 5430.79C7824.56 5436.29 7806.27 5435.44 7790 5428.39C7770.46 5422.91 7738.57 5418.62 7746.46 5441.93C7762.4 5493.36 7850.51 5473.3 7850.51 5473.3C7850.51 5473.3 7863.88 5471.42 7896.96 5424.45C7930.04 5377.48 8003.92 5270.18 8003.92 5270.18" stroke="#263238" stroke-miterlimit="10" stroke-linecap="round"/>
<path d="M9089.13 4621.9L9027.42 4422.38" stroke="#263238" stroke-miterlimit="10" stroke-linecap="round"/>
<path d="M9836.99 4060.19C9836.99 4060.19 10048.7 4071.84 10123.8 4114.01C10198.8 4156.18 10213.1 4405.41 10213.1 4405.41L10504.5 4979.29C10504.5 4979.29 11050.1 5112.31 11116.1 5122.25C11182.1 5132.19 11227.3 5114.19 11286.3 5130.48C11345.2 5146.76 11348.2 5155.85 11392.2 5204.7C11436.3 5253.55 11456 5300.52 11438.8 5309.6C11421.7 5318.69 11380.4 5281.84 11367.9 5267.95C11352.8 5253.85 11336.8 5240.85 11319.9 5229.04C11319.9 5229.04 11351.6 5331.03 11365.6 5379.54C11395.1 5481.19 11415.9 5299.15 11441.6 5319.03C11475 5344.74 11451.5 5494.04 11366.2 5476.39C11280.8 5458.73 11238.5 5460.79 11204.2 5415.88C11169.9 5370.97 11095.7 5260.75 11095.7 5260.75C11095.7 5260.75 10790.4 5239.67 10615.7 5220.81C10441 5201.96 10286.3 5121.05 10228.3 5065C10176.9 5015.12 10002.6 4644.7 10002.6 4644.7L9842.99 4222.51C9842.99 4222.51 9798.77 4133.21 9836.99 4060.19Z" fill="white" stroke="#263238" stroke-miterlimit="10" stroke-linecap="round"/>
<path d="M11354.7 5431.82C11364.1 5439.88 11374 5447.32 11384.3 5454.1C11400 5461.36 11416.8 5465.99 11434 5467.82C11477.7 5473.99 11493.3 5492.33 11482.9 5503.98C11472.4 5515.64 11453.1 5513.41 11413 5513.41C11382.8 5512.33 11353.6 5502.37 11329.1 5484.79C11316.4 5476.13 11304.9 5465.81 11294.8 5454.1" fill="white"/>
<path d="M11354.7 5431.82C11364.1 5439.88 11374 5447.32 11384.3 5454.1C11400 5461.36 11416.8 5465.99 11434 5467.82C11477.7 5473.99 11493.3 5492.33 11482.9 5503.98C11472.4 5515.64 11453.1 5513.41 11413 5513.41C11382.8 5512.33 11353.6 5502.37 11329.1 5484.79C11316.4 5476.13 11304.9 5465.81 11294.8 5454.1" stroke="#263238" stroke-miterlimit="10" stroke-linecap="round"/>
<path d="M11310.8 5434.91C11319.1 5444.23 11327.9 5452.99 11337.4 5461.13C11351.3 5471.7 11367.6 5478.6 11384.8 5481.19C11407 5484.1 11440.5 5513.07 11428.5 5523.18C11416.6 5533.3 11398 5528.84 11358.1 5523.18C11328.3 5518.26 11300.7 5504.6 11278.7 5483.93C11267.4 5473.83 11257.4 5462.31 11249.1 5449.65" fill="white"/>
<path d="M11310.8 5434.91C11319.1 5444.23 11327.9 5452.99 11337.4 5461.13C11351.3 5471.7 11367.6 5478.6 11384.8 5481.19C11407 5484.1 11440.5 5513.07 11428.5 5523.18C11416.6 5533.3 11398 5528.84 11358.1 5523.18C11328.3 5518.26 11300.7 5504.6 11278.7 5483.93C11267.4 5473.83 11257.4 5462.31 11249.1 5449.65" stroke="#263238" stroke-miterlimit="10" stroke-linecap="round"/>
<path d="M11181.2 5189.27C11181.2 5189.27 11217.9 5197.5 11243.3 5255.27C11268.6 5313.03 11251.3 5423.59 11267.8 5430.79C11284.6 5436.29 11302.9 5435.44 11319.2 5428.39C11338.6 5422.91 11370.6 5418.62 11362.7 5441.93C11346.8 5493.36 11258.7 5473.3 11258.7 5473.3C11258.7 5473.3 11245.3 5471.42 11212.2 5424.45C11179.1 5377.48 11105.3 5270.18 11105.3 5270.18" fill="white"/>
<path d="M11181.2 5189.27C11181.2 5189.27 11217.9 5197.5 11243.3 5255.27C11268.6 5313.03 11251.3 5423.59 11267.8 5430.79C11284.6 5436.29 11302.9 5435.44 11319.2 5428.39C11338.6 5422.91 11370.6 5418.62 11362.7 5441.93C11346.8 5493.36 11258.7 5473.3 11258.7 5473.3C11258.7 5473.3 11245.3 5471.42 11212.2 5424.45C11179.1 5377.48 11105.3 5270.18 11105.3 5270.18" stroke="#263238" stroke-miterlimit="10" stroke-linecap="round"/>
<path d="M10019.9 4621.9L10081.4 4422.38" stroke="#263238" stroke-miterlimit="10" stroke-linecap="round"/>
<path d="M9464.52 3774.61C9464.52 3774.61 9454.92 3883.8 9410.01 3957.51C9365.1 4031.22 9272.02 4060.36 9272.02 4060.36L9089.12 4621.21L9185.46 4999.86C9185.46 4999.86 9015.25 5259.89 8947.88 5417.08C8880.52 5574.26 8961.42 5752.36 9032.04 5826.07C9102.67 5899.77 9196.43 6000.39 9436.4 5991.14C9769.46 5977.94 10006.2 6008.28 10112.1 5883.15C10218 5758.02 10229.4 5521.81 10102.7 5343.54C10025.7 5235.04 9920.99 5000.72 9920.99 5000.72L10025.2 4610.24L9864.93 4059.33C9864.93 4059.33 9769.11 4053.84 9710.66 3983.22C9652.21 3912.6 9665.75 3784.21 9665.75 3784.21L9464.52 3774.61Z" fill="white" stroke="#263238" stroke-miterlimit="10" stroke-linecap="round"/>
<path d="M9571.82 3923.57C9607.18 3923.56 9642.16 3916.39 9674.67 3902.49C9666.29 3863.66 9663.57 3823.82 9666.61 3784.21L9464.35 3774.61C9460.17 3813.24 9452.19 3851.37 9440.52 3888.43C9480.42 3911.52 9525.72 3923.65 9571.82 3923.57V3923.57Z" fill="#263238"/>
<path d="M10024.5 4610.07L9864.93 4059.33C9848.95 4058.18 9833.11 4055.54 9817.62 4051.44C9836.14 4179.32 9814.02 4243.25 9814.02 4243.25C9810.86 4271.24 9801.06 4298.06 9785.44 4321.5C9769.81 4344.93 9748.82 4364.3 9724.2 4377.98C9637.47 4429.41 9473.77 4439 9371.1 4355.53C9293.79 4292.62 9307.5 4120.18 9319.67 4039.27C9304.54 4047.6 9288.71 4054.6 9272.36 4060.19L9089.12 4621.21L9185.46 4999.86H9920.3L10024.5 4610.07Z" fill="#E76F51" stroke="#263238" stroke-miterlimit="10" stroke-linecap="round"/>
<path d="M9318.47 3471.73C9318.47 3471.73 9273.74 3403.16 9253.34 3463.67C9232.94 3524.18 9273.74 3602 9302.19 3622.4C9330.64 3642.8 9318.47 3471.73 9318.47 3471.73Z" fill="white" stroke="#263238" stroke-miterlimit="10" stroke-linecap="round"/>
<path d="M9814.88 3471.73C9814.88 3471.73 9859.79 3403.16 9880.02 3463.67C9900.24 3524.18 9859.79 3602 9831.17 3622.4C9802.54 3642.8 9814.88 3471.73 9814.88 3471.73Z" fill="white" stroke="#263238" stroke-miterlimit="10" stroke-linecap="round"/>
<path d="M9571.82 3851.23C9537.89 3851.23 9504.29 3844.55 9472.95 3831.55C9441.61 3818.56 9413.14 3799.51 9389.16 3775.5C9365.19 3751.5 9346.18 3723 9333.23 3691.64C9320.27 3660.28 9313.63 3626.67 9313.68 3592.75V3196.61C9313.68 3171.11 9323.81 3146.65 9341.84 3128.62C9359.87 3110.58 9384.33 3100.45 9409.84 3100.45H9733.63C9759.14 3100.45 9783.6 3110.58 9801.63 3128.62C9819.66 3146.65 9829.79 3171.11 9829.79 3196.61V3592.75C9829.86 3626.67 9823.24 3660.27 9810.3 3691.63C9797.37 3722.98 9778.38 3751.48 9754.42 3775.49C9730.46 3799.5 9701.99 3818.55 9670.66 3831.55C9639.33 3844.54 9605.74 3851.23 9571.82 3851.23V3851.23Z" fill="white" stroke="#263238" stroke-miterlimit="10" stroke-linecap="round"/>
<path d="M9642.1 3069.26C9642.1 3069.26 9441.72 3293.29 9306.3 3368.54V3451.33C9248.04 3386.6 9210.39 3305.98 9198.14 3219.75C9183.06 3084.17 9491.6 2835.96 9649.64 2896.13C9807.68 2956.29 9642.1 3069.26 9642.1 3069.26Z" fill="#263238"/>
<path d="M9599.25 3061.37C9599.25 3061.37 9701.06 3264.84 9823.11 3366.65V3443.96C9823.11 3443.96 9949.27 3252.67 9953.38 3179.47C9957.5 3106.28 9676.38 2983.38 9599.25 2967.09C9522.11 2950.81 9599.25 3061.37 9599.25 3061.37Z" fill="#263238"/>
<path d="M9302.19 3622.4C9302.19 3622.4 9363.21 3789.18 9285.91 3850.21C9208.6 3911.23 9151.69 3899.06 9106.78 4069.96C9061.87 4240.85 9269.62 4273.42 9269.62 4383.3C9269.62 4493.17 9147.58 4517.68 9147.58 4517.68C9147.58 4517.68 9147.58 4619.5 9306.3 4611.27C9465.03 4603.05 9582.96 4464.72 9558.62 4285.59C9534.28 4106.47 9412.07 4069.78 9420.29 4000.71C9429.29 3940.39 9441.48 3880.6 9456.8 3821.58C9456.8 3821.58 9318.47 3740.33 9302.19 3622.4Z" fill="#263238"/>
<path d="M9380.18 3417.39C9397.93 3429.28 9418.81 3435.63 9440.18 3435.63C9461.54 3435.63 9482.42 3429.28 9500.17 3417.39" stroke="#263238" stroke-miterlimit="10" stroke-linecap="round"/>
<path d="M9647.24 3417.39C9665.01 3429.24 9685.88 3435.56 9707.24 3435.56C9728.59 3435.56 9749.46 3429.24 9767.23 3417.39" stroke="#263238" stroke-miterlimit="10" stroke-linecap="round"/>
<path d="M9368.7 3340.77C9368.7 3340.77 9400.07 3286.78 9496.57 3295.18" stroke="#263238" stroke-width="2" stroke-miterlimit="10" stroke-linecap="round"/>
<path d="M9627.36 3295.18C9653.41 3284.13 9682.52 3282.65 9709.56 3291C9736.6 3299.34 9759.82 3316.97 9775.12 3340.77" stroke="#263238" stroke-width="2" stroke-miterlimit="10" stroke-linecap="round"/>
<path d="M8947.88 5417.76C8880.52 5574.95 8961.42 5753.04 9032.04 5826.75C9102.67 5900.46 9196.43 6000.39 9436.4 5991.14C9769.46 5977.94 10006.2 6008.28 10112.1 5883.15C10218 5758.02 10229.4 5521.81 10102.7 5343.54C10074 5301.3 10047.8 5257.4 10024.3 5212.07H9055.36C9015.77 5278.6 8979.89 5347.27 8947.88 5417.76V5417.76Z" fill="#263238" stroke="#263238" stroke-miterlimit="10" stroke-linecap="round"/>
<path d="M9473.26 5735.39C9304.25 5560.21 8997.76 5472.62 8847.61 5447.59C8697.45 5422.56 8421.99 5272.58 8421.99 5272.58C8421.99 5272.58 8259.32 5267.09 8271.84 5461.13C8284.35 5655.17 8753.67 5880.4 8935.2 5980.51C9016.86 6026.4 9108.34 6052.04 9201.96 6055.29C9295.57 6058.54 9388.61 6039.31 9473.26 5999.19" fill="#263238"/>
<path d="M9473.26 5735.39C9304.25 5560.21 8997.76 5472.62 8847.61 5447.59C8697.45 5422.56 8421.99 5272.58 8421.99 5272.58C8421.99 5272.58 8259.32 5267.09 8271.84 5461.13C8284.35 5655.17 8753.67 5880.4 8935.2 5980.51C9016.86 6026.4 9108.34 6052.04 9201.96 6055.29C9295.57 6058.54 9388.61 6039.31 9473.26 5999.19" stroke="#263238" stroke-miterlimit="10" stroke-linecap="round"/>
<path d="M9578.85 5742.42C9747.86 5567.24 10054.3 5479.64 10204.7 5454.62C10355 5429.59 10588.5 5301.55 10588.5 5301.55C10588.5 5301.55 10792.8 5273.09 10780.3 5467.13C10767.8 5661.17 10298.4 5886.23 10116.9 5986.34C10035.3 6032.25 9943.79 6057.93 9850.17 6061.21C9756.55 6064.49 9663.51 6045.28 9578.85 6005.19" fill="#263238"/>
<path d="M9578.85 5742.42C9747.86 5567.24 10054.3 5479.64 10204.7 5454.62C10355 5429.59 10588.5 5301.55 10588.5 5301.55C10588.5 5301.55 10792.8 5273.09 10780.3 5467.13C10767.8 5661.17 10298.4 5886.23 10116.9 5986.34C10035.3 6032.25 9943.79 6057.93 9850.17 6061.21C9756.55 6064.49 9663.51 6045.28 9578.85 6005.19" stroke="#263238" stroke-miterlimit="10" stroke-linecap="round"/>
<path d="M10276.3 5900.46C10276.3 5900.46 10293.5 5878.52 10270.7 5845.44C10247.9 5812.35 10198.5 5860.69 10158 5873.89C10117.6 5887.09 9958.7 5922.4 9882.76 5938.85C9817.97 5952.91 9717.35 5953.6 9687.52 5958.57C9698.61 6004.8 9695.81 6053.28 9679.47 6097.92C9664.73 6098.78 9709.46 6096.72 9694.38 6097.92C9826.37 6092.1 9901.96 6090.73 9942.75 6086.44C10017.3 6078.38 10114.2 6112.15 10189.4 6083.53C10264.7 6054.9 10318.5 5980.68 10307.9 5947.6C10302.6 5928.92 10291.6 5912.4 10276.3 5900.46V5900.46Z" fill="white" stroke="#263238" stroke-miterlimit="10" stroke-linecap="round"/>
<path d="M9682.21 5959.25H9686.32H9682.21Z" fill="white" stroke="#263238" stroke-miterlimit="10" stroke-linecap="round"/>
<path d="M9678.61 5959.94H9680.49H9678.61Z" fill="white" stroke="#263238" stroke-miterlimit="10" stroke-linecap="round"/>
<path d="M10276.3 5900.46C10256.1 5911.16 10234.3 5918.41 10211.7 5921.89" stroke="#263238" stroke-miterlimit="10" stroke-linecap="round"/>
<path d="M10307 5947.08C10279.2 5958.71 10250.6 5968.17 10221.3 5975.37" stroke="#263238" stroke-miterlimit="10" stroke-linecap="round"/>
<path d="M10217.7 6012.39C10241.1 6016.77 10265.3 6013.02 10286.3 6001.76" stroke="#263238" stroke-miterlimit="10" stroke-linecap="round"/>
<path d="M10196.8 6045.64C10218.8 6048.65 10241.1 6045.07 10261.1 6035.36" stroke="#263238" stroke-miterlimit="10" stroke-linecap="round"/>
<path d="M9678.61 6097.93C9694.95 6053.28 9697.76 6004.8 9686.67 5958.57L9678.61 5959.94C9678.61 5959.94 9387.21 5898.06 9140.55 5747.39C8893.89 5596.72 8580.38 5364.97 8421.99 5272.58C8263.61 5180.19 8113.45 5319.03 8128.54 5465.76C8143.62 5612.49 8263.78 5689.79 8479.93 5778.59C8696.08 5867.38 9090.32 6006.56 9298.76 6048.9C9406.41 6070.5 9558.28 6103.92 9678.61 6097.93Z" fill="#263238" stroke="#263238" stroke-miterlimit="10" stroke-linecap="round"/>
<path d="M9245.8 6089.53C9228.21 6045.16 9224.57 5996.49 9235.34 5950L9243.74 5951.37C9243.74 5951.37 9544.05 5888.29 9800.48 5737.79C10056.9 5587.29 10463.8 5360.68 10628.2 5267.61C10660.3 5247.97 10697.2 5237.72 10734.8 5238.03C10772.4 5238.34 10809.2 5249.19 10840.9 5269.35C10872.6 5289.51 10898.1 5318.18 10914.3 5352.08C10930.6 5385.98 10937 5423.76 10932.8 5461.13C10916.7 5608.03 10792.4 5685.17 10568.1 5773.96C10343.7 5862.75 9852.59 5996.79 9636.1 6039.47C9524.51 6061.07 9370.41 6095.35 9245.8 6089.53Z" fill="#263238" stroke="#263238" stroke-miterlimit="10" stroke-linecap="round"/>
<path d="M9235.34 5950C9235.34 5950 8947.2 5914 8856.35 5888.8C8765.5 5863.61 8704.31 5806.18 8674.48 5822.29C8644.66 5838.41 8669.34 5878.86 8669.34 5878.86C8669.34 5878.86 8649.11 5928.91 8669.34 5961.82C8689.57 5994.73 8718.88 6026.27 8820.7 6079.41C8922.51 6132.55 9042.16 6112.49 9105.41 6109.41C9152.62 6106.15 9199.54 6099.51 9245.8 6089.53C9245.8 6089.53 9221.28 6041.02 9235.34 5950Z" fill="white" stroke="#263238" stroke-miterlimit="10" stroke-linecap="round"/>
<path d="M8669.34 5878.86C8676.86 5875.89 8685.09 5875.19 8693.01 5876.83C8700.92 5878.47 8708.19 5882.4 8713.91 5888.12C8727.27 5901.03 8743.3 5910.86 8760.87 5916.91" stroke="#263238" stroke-miterlimit="10" stroke-linecap="round"/>
<path d="M8660.77 5939.03C8666.84 5935.64 8673.64 5933.76 8680.59 5933.55C8687.54 5933.34 8694.44 5934.81 8700.71 5937.83C8715.04 5945.1 8730.25 5950.52 8745.96 5953.94" stroke="#263238" stroke-miterlimit="10" stroke-linecap="round"/>
<path d="M8699.34 5997.82C8699.34 5997.82 8708.25 5983.42 8718.71 5985.48C8729.16 5987.54 8771.84 6002.62 8783.5 6003.82" stroke="#263238" stroke-miterlimit="10" stroke-linecap="round"/>
<path d="M8754.7 6040.85C8761.36 6034.89 8769.79 6031.28 8778.7 6030.56C8791.07 6031.46 8803.37 6033.06 8815.55 6035.36" stroke="#263238" stroke-miterlimit="10" stroke-linecap="round"/>
<path d="M1651.41 5808.75C1441.43 6003.99 1246.02 6209.86 1020.96 6400.98L4067.8 6399.95C4148.82 6202.14 4230.01 6005.08 4311.37 5808.75H1651.41Z" fill="#E76F51" stroke="#263238" stroke-miterlimit="10" stroke-linecap="round"/>
<path d="M2619.03 4060.19C2619.03 4060.19 2407.16 4071.84 2332.08 4114.01C2257.01 4156.18 2242.95 4405.41 2242.95 4405.41L1951.55 4979.29C1951.55 4979.29 1406.12 5112.31 1340.13 5122.25C1274.13 5132.19 1228.88 5114.19 1169.91 5130.48C1110.95 5146.76 1108.03 5155.85 1063.98 5204.7C1019.93 5253.55 1000.22 5300.52 1017.36 5309.6C1034.5 5318.69 1075.81 5281.84 1088.32 5267.95C1103.32 5253.87 1119.31 5240.86 1136.15 5229.04C1136.15 5229.04 1104.44 5331.03 1090.38 5379.54C1060.9 5481.19 1040.33 5299.15 1014.62 5319.03C980.333 5344.74 1004.5 5494.04 1090.04 5476.39C1175.57 5458.73 1217.74 5460.79 1252.02 5415.88C1286.3 5370.97 1360.35 5260.75 1360.35 5260.75C1360.35 5260.75 1665.81 5239.67 1840.3 5220.81C2014.8 5201.96 2169.76 5121.05 2227.87 5065C2279.29 5015.12 2453.62 4644.7 2453.62 4644.7L2614.23 4222C2614.23 4222 2657.08 4133.21 2619.03 4060.19Z" fill="white" stroke="#263238" stroke-miterlimit="10" stroke-linecap="round"/>
<path d="M1101.35 5431.82C1091.95 5439.88 1082.05 5447.32 1071.7 5454.1C1055.98 5461.33 1039.19 5465.96 1021.99 5467.82C978.277 5473.99 962.507 5492.33 973.134 5503.98C983.762 5515.64 1002.79 5513.41 1043.07 5513.41C1073.22 5512.33 1102.38 5502.37 1126.89 5484.79C1139.62 5476.11 1151.14 5465.79 1161.17 5454.1" fill="white"/>
<path d="M1101.35 5431.82C1091.95 5439.88 1082.05 5447.32 1071.7 5454.1C1055.98 5461.33 1039.19 5465.96 1021.99 5467.82C978.277 5473.99 962.507 5492.33 973.134 5503.98C983.762 5515.64 1002.79 5513.41 1043.07 5513.41C1073.22 5512.33 1102.38 5502.37 1126.89 5484.79C1139.62 5476.11 1151.14 5465.79 1161.17 5454.1" stroke="#263238" stroke-miterlimit="10" stroke-linecap="round"/>
<path d="M1145.23 5434.91C1136.92 5444.18 1128.05 5452.94 1118.66 5461.13C1104.84 5471.52 1088.63 5478.3 1071.52 5480.84C1049.58 5483.76 1015.82 5512.73 1027.81 5522.84C1039.81 5532.95 1058.5 5528.5 1098.44 5522.84C1128.2 5517.92 1155.82 5504.25 1177.8 5483.59C1189.13 5473.49 1199.1 5461.97 1207.45 5449.3" fill="white"/>
<path d="M1145.23 5434.91C1136.92 5444.18 1128.05 5452.94 1118.66 5461.13C1104.84 5471.52 1088.63 5478.3 1071.52 5480.84C1049.58 5483.76 1015.82 5512.73 1027.81 5522.84C1039.81 5532.95 1058.5 5528.5 1098.44 5522.84C1128.2 5517.92 1155.82 5504.25 1177.8 5483.59C1189.13 5473.49 1199.1 5461.97 1207.45 5449.3" stroke="#263238" stroke-miterlimit="10" stroke-linecap="round"/>
<path d="M1274.82 5189.27C1274.82 5189.27 1237.96 5197.5 1212.77 5255.27C1187.57 5313.03 1204.54 5423.59 1188.26 5430.79C1171.4 5436.29 1153.11 5435.44 1136.83 5428.39C1117.29 5422.91 1085.41 5418.62 1093.29 5441.93C1109.23 5493.36 1197.34 5473.3 1197.34 5473.3C1197.34 5473.3 1210.71 5471.42 1243.79 5424.45C1276.88 5377.48 1350.75 5270.18 1350.75 5270.18" fill="white"/>
<path d="M1274.82 5189.27C1274.82 5189.27 1237.96 5197.5 1212.77 5255.27C1187.57 5313.03 1204.54 5423.59 1188.26 5430.79C1171.4 5436.29 1153.11 5435.44 1136.83 5428.39C1117.29 5422.91 1085.41 5418.62 1093.29 5441.93C1109.23 5493.36 1197.34 5473.3 1197.34 5473.3C1197.34 5473.3 1210.71 5471.42 1243.79 5424.45C1276.88 5377.48 1350.75 5270.18 1350.75 5270.18" stroke="#263238" stroke-miterlimit="10" stroke-linecap="round"/>
<path d="M2436.13 4621.9L2374.42 4422.38" stroke="#263238" stroke-miterlimit="10" stroke-linecap="round"/>
<path d="M3184 4060.19C3184 4060.19 3395.69 4071.84 3470.77 4114.01C3545.85 4156.18 3559.9 4405.41 3559.9 4405.41L3851.3 4979.29C3851.3 4979.29 4396.91 5112.31 4462.9 5122.25C4528.89 5132.19 4574.15 5114.19 4633.11 5130.48C4692.08 5146.76 4694.99 5155.85 4739.04 5204.7C4783.1 5253.55 4802.64 5300.52 4785.67 5309.6C4768.7 5318.69 4727.22 5281.84 4714.53 5267.95C4699.57 5253.82 4683.58 5240.82 4666.71 5229.04C4666.71 5229.04 4698.42 5331.03 4712.48 5379.54C4741.96 5481.19 4762.53 5299.15 4788.41 5319.03C4822.69 5344.74 4798.35 5494.04 4712.99 5476.39C4627.63 5458.73 4585.46 5461.13 4551.18 5415.36C4516.9 5369.6 4442.67 5260.24 4442.67 5260.24C4442.67 5260.24 4137.39 5239.15 3962.72 5220.3C3788.05 5201.44 3633.27 5120.54 3575.33 5064.48C3523.91 5014.6 3349.41 4644.18 3349.41 4644.18L3190 4222C3190 4222 3145.6 4133.21 3184 4060.19Z" fill="white" stroke="#263238" stroke-miterlimit="10" stroke-linecap="round"/>
<path d="M4701.51 5431.82C4710.93 5439.84 4720.84 5447.28 4731.16 5454.1C4746.93 5461.35 4763.78 5465.99 4781.04 5467.82C4824.75 5473.99 4840.35 5492.33 4829.72 5503.98C4819.09 5515.64 4800.07 5513.41 4759.79 5513.41C4729.69 5512.34 4700.58 5502.38 4676.14 5484.79C4663.39 5476.13 4651.86 5465.81 4641.85 5454.1" fill="white"/>
<path d="M4701.51 5431.82C4710.93 5439.84 4720.84 5447.28 4731.16 5454.1C4746.93 5461.35 4763.78 5465.99 4781.04 5467.82C4824.75 5473.99 4840.35 5492.33 4829.72 5503.98C4819.09 5515.64 4800.07 5513.41 4759.79 5513.41C4729.69 5512.34 4700.58 5502.38 4676.14 5484.79C4663.39 5476.13 4651.86 5465.81 4641.85 5454.1" stroke="#263238" stroke-miterlimit="10" stroke-linecap="round"/>
<path d="M4657.8 5434.91C4666.05 5444.08 4674.86 5452.72 4684.19 5460.79C4698.17 5471.32 4714.55 5478.21 4731.85 5480.84C4753.96 5483.76 4787.55 5512.73 4775.56 5522.84C4763.56 5532.95 4744.87 5528.5 4704.93 5522.84C4675.21 5517.97 4647.62 5504.29 4625.74 5483.59C4614.41 5473.49 4604.45 5461.97 4596.09 5449.3" fill="white"/>
<path d="M4657.8 5434.91C4666.05 5444.08 4674.86 5452.72 4684.19 5460.79C4698.17 5471.32 4714.55 5478.21 4731.85 5480.84C4753.96 5483.76 4787.55 5512.73 4775.56 5522.84C4763.56 5532.95 4744.87 5528.5 4704.93 5522.84C4675.21 5517.97 4647.62 5504.29 4625.74 5483.59C4614.41 5473.49 4604.45 5461.97 4596.09 5449.3" stroke="#263238" stroke-miterlimit="10" stroke-linecap="round"/>
<path d="M4528.21 5189.27C4528.21 5189.27 4564.89 5197.5 4590.26 5255.27C4615.63 5313.03 4598.32 5423.59 4614.6 5430.79C4631.46 5436.29 4649.75 5435.44 4666.02 5428.39C4685.56 5422.91 4717.45 5418.62 4709.73 5441.93C4693.79 5493.36 4605.52 5473.3 4605.52 5473.3C4605.52 5473.3 4592.32 5471.42 4559.23 5424.45C4526.15 5377.48 4452.27 5270.18 4452.27 5270.18" fill="white"/>
<path d="M4528.21 5189.27C4528.21 5189.27 4564.89 5197.5 4590.26 5255.27C4615.63 5313.03 4598.32 5423.59 4614.6 5430.79C4631.46 5436.29 4649.75 5435.44 4666.02 5428.39C4685.56 5422.91 4717.45 5418.62 4709.73 5441.93C4693.79 5493.36 4605.52 5473.3 4605.52 5473.3C4605.52 5473.3 4592.32 5471.42 4559.23 5424.45C4526.15 5377.48 4452.27 5270.18 4452.27 5270.18" stroke="#263238" stroke-miterlimit="10" stroke-linecap="round"/>
<path d="M3366.9 4621.9L3428.43 4422.38" stroke="#263238" stroke-miterlimit="10" stroke-linecap="round"/>
<path d="M2811.52 3774.61C2811.52 3774.61 2801.92 3883.8 2757.01 3957.51C2712.1 4031.22 2619.03 4060.36 2619.03 4060.36L2436.13 4621.21L2532.29 4999.86C2532.29 4999.86 2362.25 5259.89 2294.89 5417.08C2227.52 5574.26 2308.43 5752.36 2379.05 5826.07C2449.67 5899.77 2543.26 5999.71 2782.73 5990.45C3115.78 5977.25 3352.5 6007.59 3458.43 5882.46C3564.36 5757.33 3575.68 5521.13 3449 5342.86C3372.04 5234.35 3267.31 5000.03 3267.31 5000.03L3371.52 4609.56L3212.28 4058.81C3212.28 4058.81 3116.46 4053.33 3058.01 3982.71C2999.56 3912.09 3013.1 3783.7 3013.1 3783.7L2811.52 3774.61Z" fill="white" stroke="#263238" stroke-miterlimit="10" stroke-linecap="round"/>
<path d="M2918.83 3923.57C2954.18 3923.56 2989.17 3916.39 3021.67 3902.49C3013.29 3863.66 3010.58 3823.82 3013.62 3784.21L2811.35 3774.61C2807.17 3813.26 2799.13 3851.39 2787.35 3888.43C2827.33 3911.5 2872.67 3923.62 2918.83 3923.57V3923.57Z" fill="#263238"/>
<path d="M2970.25 2961.61C3065.39 2961.61 3142.52 2893.46 3142.52 2809.4C3142.52 2725.33 3065.39 2657.18 2970.25 2657.18C2875.11 2657.18 2797.98 2725.33 2797.98 2809.4C2797.98 2893.46 2875.11 2961.61 2970.25 2961.61Z" fill="#263238" stroke="#263238" stroke-miterlimit="10" stroke-linecap="round"/>
<path d="M2654.85 3458.02C2654.85 3458.02 2596.06 3409.85 2596.06 3500.7C2595.55 3526.25 2601.68 3551.49 2613.85 3573.97C2626.02 3596.44 2643.81 3615.37 2665.48 3628.91L2654.85 3458.02Z" fill="white" stroke="#263238" stroke-miterlimit="10" stroke-linecap="round"/>
<path d="M3172.86 3458.02C3172.86 3458.02 3231.65 3409.85 3231.65 3500.7C3232.16 3526.25 3226.03 3551.49 3213.86 3573.97C3201.69 3596.44 3183.9 3615.37 3162.23 3628.91L3172.86 3458.02Z" fill="white" stroke="#263238" stroke-miterlimit="10" stroke-linecap="round"/>
<path d="M2954.65 2921.33C2954.65 2921.33 2708.5 2903.33 2627.94 2997.43C2547.38 3091.54 2660.68 3501.73 2660.68 3501.73H3187.26C3187.26 3501.73 3249.99 3243.41 3249.99 3118.28C3249.99 2993.15 3209.71 2925.78 2954.65 2921.33Z" fill="#263238" stroke="#263238" stroke-miterlimit="10" stroke-linecap="round"/>
<path d="M2918.83 3851.23C2884.9 3851.23 2851.3 3844.55 2819.96 3831.55C2788.62 3818.56 2760.14 3799.51 2736.17 3775.5C2712.19 3751.5 2693.18 3723 2680.23 3691.64C2667.28 3660.28 2660.64 3626.67 2660.68 3592.75V3196.61C2660.68 3143.48 2712.1 3131.65 2797.81 3086.91L2860.37 3051.09L3080.47 3100.45C3146.8 3117.59 3176.63 3143.48 3176.63 3196.61V3592.75C3176.7 3626.65 3170.08 3660.24 3157.16 3691.59C3144.23 3722.93 3125.26 3751.43 3101.31 3775.43C3077.37 3799.44 3048.93 3818.49 3017.61 3831.5C2986.3 3844.51 2952.73 3851.21 2918.83 3851.23V3851.23Z" fill="white" stroke="#263238" stroke-miterlimit="10" stroke-linecap="round"/>
<path d="M2727.02 3417.39C2744.78 3429.24 2765.66 3435.56 2787.01 3435.56C2808.36 3435.56 2829.24 3429.24 2847 3417.39" stroke="#263238" stroke-miterlimit="10" stroke-linecap="round"/>
<path d="M2994.25 3417.39C3012 3429.28 3032.88 3435.63 3054.24 3435.63C3075.6 3435.63 3096.49 3429.28 3114.24 3417.39" stroke="#263238" stroke-miterlimit="10" stroke-linecap="round"/>
<path d="M2715.7 3340.77C2715.7 3340.77 2746.9 3286.78 2843.58 3295.18" stroke="#263238" stroke-width="2" stroke-miterlimit="10" stroke-linecap="round"/>
<path d="M2974.19 3295.18C3000.24 3284.13 3029.36 3282.65 3056.39 3291C3083.43 3299.34 3106.65 3316.97 3121.95 3340.77" stroke="#263238" stroke-width="2" stroke-miterlimit="10" stroke-linecap="round"/>
<path d="M2294.89 5417.76C2227.52 5574.95 2308.43 5753.04 2379.05 5826.75C2449.67 5900.46 2543.26 6000.39 2782.73 5991.14C3115.78 5977.94 3352.5 6008.28 3458.43 5883.15C3564.36 5758.02 3575.68 5521.81 3449 5343.54C3420.32 5301.3 3394.16 5257.4 3370.67 5212.07H2402.36C2362.7 5278.56 2326.82 5347.24 2294.89 5417.76V5417.76Z" fill="#787878" stroke="#263238" stroke-miterlimit="10" stroke-linecap="round"/>
<path d="M2619.03 4060.19C2619.03 4060.19 2699.59 4207.43 2914.03 4207.43C3134.8 4207.43 3184 4060.36 3184 4060.19C3190.86 4039.44 3343.24 4055.73 3365.35 4059.16C3417.98 4067.21 3498.2 4078.53 3530.42 4127.72C3551.85 4159.78 3637.55 4341.99 3637.55 4341.99L3371.52 4610.76C3371.52 4610.76 3299.87 4931.64 3305.19 4979.81C3310.5 5027.97 3471.29 5365.14 3471.29 5365.14H2313.74L2485.15 4979.12L2454.13 4644.18L2163.59 4389.64C2163.59 4389.64 2222.55 4164.57 2270.89 4132.52C2319.23 4100.47 2528.52 4031.05 2619.03 4060.19Z" fill="#E76F51" stroke="#263238" stroke-miterlimit="10" stroke-linecap="round"/>
<path d="M2590.23 4816.8C2611.66 4764 2637.2 4694.24 2665.48 4604.59Z" fill="#E76F51"/>
<path d="M2590.23 4816.8C2611.66 4764 2637.2 4694.24 2665.48 4604.59" stroke="#263238" stroke-miterlimit="10" stroke-linecap="round"/>
<path d="M2522.52 4958.21C2540.99 4927.78 2557.1 4895.98 2570.69 4863.08Z" fill="#E76F51"/>
<path d="M2522.52 4958.21C2540.99 4927.78 2557.1 4895.98 2570.69 4863.08" stroke="#263238" stroke-miterlimit="10" stroke-linecap="round"/>
<path d="M3102.07 4627.04C3102.07 4627.04 3184.86 4852.79 3245.02 4935.58Z" fill="#E76F51"/>
<path d="M3102.07 4627.04C3102.07 4627.04 3184.86 4852.79 3245.02 4935.58" stroke="#263238" stroke-miterlimit="10" stroke-linecap="round"/>
<path d="M2398.08 4346.61L2386.94 4288.33" stroke="#263238" stroke-miterlimit="10" stroke-linecap="round"/>
<path d="M2454.13 4644.18L2409.05 4405.58" stroke="#263238" stroke-miterlimit="10" stroke-linecap="round"/>
<path d="M3371.52 4610.07L3425.69 4288.33" stroke="#263238" stroke-miterlimit="10" stroke-linecap="round"/>
<path d="M3281.02 5130.48C3291.13 5146.42 3301.76 5161.85 3312.73 5176.42Z" fill="#E76F51"/>
<path d="M3281.02 5130.48C3291.13 5146.42 3301.76 5161.85 3312.73 5176.42" stroke="#263238" stroke-miterlimit="10" stroke-linecap="round"/>
<path d="M3132.06 4800.17C3164.45 4902.85 3207.3 5001.93 3259.94 5095.85Z" fill="#E76F51"/>
<path d="M3132.06 4800.17C3164.45 4902.85 3207.3 5001.93 3259.94 5095.85" stroke="#263238" stroke-miterlimit="10" stroke-linecap="round"/>
<path d="M2703.19 4597.05C2703.19 4597.05 2642.85 4792.63 2620.4 4852.79Z" fill="#E76F51"/>
<path d="M2703.19 4597.05C2703.19 4597.05 2642.85 4792.63 2620.4 4852.79" stroke="#263238" stroke-miterlimit="10" stroke-linecap="round"/>
<path d="M2819.92 5735.39C2650.91 5560.21 2344.25 5472.62 2194.1 5447.59C2043.94 5422.56 1769 5272.58 1769 5272.58C1769 5272.58 1606.33 5267.09 1618.84 5461.13C1631.35 5655.17 2100.68 5880.4 2282.03 5980.51C2363.73 6026.4 2455.23 6052.04 2548.88 6055.29C2642.52 6058.54 2735.58 6039.31 2820.26 5999.19" fill="#787878"/>
<path d="M2819.92 5735.39C2650.91 5560.21 2344.25 5472.62 2194.1 5447.59C2043.94 5422.56 1769 5272.58 1769 5272.58C1769 5272.58 1606.33 5267.09 1618.84 5461.13C1631.35 5655.17 2100.68 5880.4 2282.03 5980.51C2363.73 6026.4 2455.23 6052.04 2548.88 6055.29C2642.52 6058.54 2735.58 6039.31 2820.26 5999.19" stroke="#263238" stroke-miterlimit="10" stroke-linecap="round"/>
<path d="M2925.85 5742.42C3094.87 5567.23 3401.35 5479.64 3551.51 5454.62C3701.66 5429.59 3935.47 5301.55 3935.47 5301.55C3935.47 5301.55 4139.79 5272.58 4127.28 5467.13C4114.76 5661.68 3645.44 5886.23 3463.91 5986.34C3382.26 6032.25 3290.8 6057.93 3197.18 6061.21C3103.56 6064.49 3010.52 6045.28 2925.85 6005.19" fill="#787878"/>
<path d="M2925.85 5742.42C3094.87 5567.23 3401.35 5479.64 3551.51 5454.62C3701.66 5429.59 3935.47 5301.55 3935.47 5301.55C3935.47 5301.55 4139.79 5272.58 4127.28 5467.13C4114.76 5661.68 3645.44 5886.23 3463.91 5986.34C3382.26 6032.25 3290.8 6057.93 3197.18 6061.21C3103.56 6064.49 3010.52 6045.28 2925.85 6005.19" stroke="#263238" stroke-miterlimit="10" stroke-linecap="round"/>
<path d="M3622.47 5900.46C3622.47 5900.46 3639.61 5878.52 3616.81 5845.44C3594.02 5812.35 3544.65 5860.69 3504.2 5873.89C3463.74 5887.09 3304.84 5922.4 3228.91 5938.85C3164.12 5952.91 3063.5 5953.6 3033.67 5958.57C3044.61 6004.82 3041.75 6053.28 3025.44 6097.92C3010.87 6098.78 3055.61 6096.72 3040.53 6097.92C3172.51 6092.1 3248.11 6090.73 3288.9 6086.44C3363.47 6078.38 3460.31 6112.15 3535.56 6083.53C3610.81 6054.9 3664.64 5980.68 3653.84 5947.6C3648.72 5928.92 3637.72 5912.4 3622.47 5900.46V5900.46Z" fill="white" stroke="#263238" stroke-miterlimit="10" stroke-linecap="round"/>
<path d="M3029.22 5959.25H3033.33H3029.22Z" fill="white" stroke="#263238" stroke-miterlimit="10" stroke-linecap="round"/>
<path d="M3025.62 5959.94H3027.5H3025.62Z" fill="white" stroke="#263238" stroke-miterlimit="10" stroke-linecap="round"/>
<path d="M3622.47 5900.46C3602.28 5911.16 3580.44 5918.41 3557.85 5921.89" stroke="#263238" stroke-miterlimit="10" stroke-linecap="round"/>
<path d="M3653.84 5947.08C3626.05 5958.73 3597.4 5968.19 3568.13 5975.37" stroke="#263238" stroke-miterlimit="10" stroke-linecap="round"/>
<path d="M3564.7 6012.39C3588.38 6016.97 3612.91 6013.22 3634.13 6001.76" stroke="#263238" stroke-miterlimit="10" stroke-linecap="round"/>
<path d="M3543.79 6045.64C3565.71 6048.65 3588.02 6045.07 3607.9 6035.36" stroke="#263238" stroke-miterlimit="10" stroke-linecap="round"/>
<path d="M3025.62 6097.93C3041.93 6053.28 3044.79 6004.83 3033.84 5958.57L3025.79 5959.94C3025.79 5959.94 2734.39 5898.06 2487.55 5747.39C2240.72 5596.72 1927.38 5364.97 1769 5272.58C1610.61 5180.19 1460.46 5319.03 1475.54 5465.76C1490.63 5612.49 1610.61 5689.79 1826.93 5778.59C2043.26 5867.38 2437.33 6006.56 2645.77 6048.9C2753.41 6070.5 2905.63 6103.92 3025.62 6097.93Z" fill="#787878" stroke="#263238" stroke-miterlimit="10" stroke-linecap="round"/>
<path d="M2592.8 6089.53C2575.22 6045.16 2571.57 5996.49 2582.35 5950L2590.74 5951.37C2590.74 5951.37 2890.89 5888.29 3147.49 5737.79C3404.09 5587.29 3810.85 5360.68 3975.23 5267.61C4007.3 5247.97 4044.22 5237.72 4081.82 5238.03C4119.41 5238.34 4156.17 5249.19 4187.9 5269.35C4219.64 5289.51 4245.08 5318.18 4261.33 5352.08C4277.58 5385.98 4283.99 5423.76 4279.83 5461.13C4263.72 5608.03 4139.45 5685.17 3915.07 5773.96C3690.69 5862.75 3199.6 5996.79 2983.11 6039.47C2871.35 6061.07 2717.07 6095.35 2592.8 6089.53Z" fill="#787878" stroke="#263238" stroke-miterlimit="10" stroke-linecap="round"/>
<path d="M2582.35 5950C2582.35 5950 2294.2 5914 2202.84 5889.66C2111.48 5865.32 2050.97 5807.04 2021.14 5823.15C1991.32 5839.27 2016 5879.72 2016 5879.72C2016 5879.72 1995.78 5929.77 2016 5962.68C2036.23 5995.59 2065.54 6027.13 2167.19 6080.27C2268.83 6133.41 2388.99 6113.01 2452.59 6110.27C2499.8 6107.01 2546.71 6100.37 2592.97 6090.38C2592.97 6090.38 2568.29 6041.02 2582.35 5950Z" fill="white" stroke="#263238" stroke-miterlimit="10" stroke-linecap="round"/>
<path d="M2016.34 5878.86C2023.87 5875.89 2032.09 5875.19 2040.01 5876.83C2047.93 5878.47 2055.19 5882.4 2060.91 5888.12C2074.28 5901.03 2090.31 5910.86 2107.88 5916.91" stroke="#263238" stroke-miterlimit="10" stroke-linecap="round"/>
<path d="M2007.6 5939.03C2013.71 5935.64 2020.53 5933.76 2027.51 5933.55C2034.49 5933.34 2041.42 5934.81 2047.71 5937.83C2062.05 5945.1 2077.26 5950.52 2092.97 5953.94" stroke="#263238" stroke-miterlimit="10" stroke-linecap="round"/>
<path d="M2046.17 5997.82C2046.17 5997.82 2055.08 5983.42 2065.54 5985.48C2076 5987.54 2118.68 6002.62 2130.33 6003.82" stroke="#263238" stroke-miterlimit="10" stroke-linecap="round"/>
<path d="M2101.71 6040.85C2108.37 6034.89 2116.8 6031.28 2125.71 6030.56C2138.07 6031.47 2150.37 6033.07 2162.56 6035.36" stroke="#263238" stroke-miterlimit="10" stroke-linecap="round"/>
<path d="M4301.95 6772.09C4205.78 7048.92 4106.88 7326.77 3996.83 7606.69L8422.85 7605.83C8323.09 7327.46 8223.1 7049.54 8122.88 6772.09H4301.95Z" fill="#E76F51" stroke="#263238" stroke-miterlimit="10" stroke-linecap="round"/>
<path d="M5890.76 4803.6C5890.76 4803.6 5626.61 4817.99 5532.85 4870.62C5439.09 4923.24 5421.61 5233.5 5421.61 5233.5L5058.21 5949.31C5058.21 5949.31 4377.71 6115.24 4295.43 6127.75C4213.15 6140.26 4156.76 6117.64 4083.05 6137.86C4009.35 6158.09 4005.92 6169.57 3950.89 6230.43C3895.87 6291.28 3871.53 6350.41 3892.79 6361.38C3914.04 6372.35 3965.64 6327.1 3981.41 6309.96C4000.07 6292.3 4020.01 6276.02 4041.06 6261.28C4041.06 6261.28 4001.63 6388.47 3983.98 6449.83C3947.3 6576.68 3921.58 6349.73 3889.36 6374.41C3847.53 6406.64 3876.85 6592.79 3983.46 6570.85C4090.08 6548.91 4142.7 6551.31 4185.56 6495.26C4228.41 6439.2 4320.8 6301.05 4320.8 6301.05C4320.8 6301.05 4701.68 6274.65 4920.74 6251.17C5139.8 6227.68 5332.13 6126.72 5404.12 6056.79C5468.4 5994.56 5685.75 5532.61 5685.75 5532.61L5884.76 5005.69C5884.76 5005.69 5938.24 4895.47 5890.76 4803.6Z" fill="#787878" stroke="#263238" stroke-miterlimit="10" stroke-linecap="round"/>
<path d="M3997.69 6514.46C3985.95 6524.49 3973.59 6533.77 3960.67 6542.22C3941.08 6551.35 3920.11 6557.14 3898.61 6559.36C3844.11 6567.08 3824.56 6589.88 3837.76 6604.45C3850.96 6619.02 3874.79 6616.27 3925.01 6616.27C3962.55 6614.87 3998.85 6602.47 4029.4 6580.62C4045.1 6569.69 4059.33 6556.79 4071.74 6542.22" fill="#787878"/>
<path d="M3997.69 6514.46C3985.95 6524.49 3973.59 6533.77 3960.67 6542.22C3941.08 6551.35 3920.11 6557.14 3898.61 6559.36C3844.11 6567.08 3824.56 6589.88 3837.76 6604.45C3850.96 6619.02 3874.79 6616.27 3925.01 6616.27C3962.55 6614.87 3998.85 6602.47 4029.4 6580.62C4045.1 6569.69 4059.33 6556.79 4071.74 6542.22" stroke="#263238" stroke-miterlimit="10" stroke-linecap="round"/>
<path d="M4052.37 6518.23C4042.06 6529.73 4031.01 6540.56 4019.29 6550.62C4001.84 6563.7 3981.39 6572.19 3959.81 6575.31C3932.38 6578.91 3890.39 6614.9 3905.3 6627.76C3920.21 6640.61 3943.52 6634.79 3993.41 6627.76C4030.46 6621.57 4064.87 6604.57 4092.31 6578.91C4106.49 6566.06 4118.93 6551.42 4129.33 6535.37" fill="#787878"/>
<path d="M4052.37 6518.23C4042.06 6529.73 4031.01 6540.56 4019.29 6550.62C4001.84 6563.7 3981.39 6572.19 3959.81 6575.31C3932.38 6578.91 3890.39 6614.9 3905.3 6627.76C3920.21 6640.61 3943.52 6634.79 3993.41 6627.76C4030.46 6621.57 4064.87 6604.57 4092.31 6578.91C4106.49 6566.06 4118.93 6551.42 4129.33 6535.37" stroke="#263238" stroke-miterlimit="10" stroke-linecap="round"/>
<path d="M4214.01 6211.74C4214.01 6211.74 4168.07 6222.2 4136.53 6294.19C4104.99 6366.18 4126.42 6504.17 4106.02 6513.25C4085.62 6522.34 4066.25 6516.85 4041.91 6510.17C4017.57 6503.48 3978.49 6498 3987.58 6527.31C4007.46 6591.08 4117.34 6566.39 4117.34 6566.39C4117.34 6566.39 4134.48 6563.99 4175.27 6505.71C4216.07 6447.43 4308.63 6313.05 4308.63 6313.05" fill="#787878"/>
<path d="M4214.01 6211.74C4214.01 6211.74 4168.07 6222.2 4136.53 6294.19C4104.99 6366.18 4126.42 6504.17 4106.02 6513.25C4085.62 6522.34 4066.25 6516.85 4041.91 6510.17C4017.57 6503.48 3978.49 6498 3987.58 6527.31C4007.46 6591.08 4117.34 6566.39 4117.34 6566.39C4117.34 6566.39 4134.48 6563.99 4175.27 6505.71C4216.07 6447.43 4308.63 6313.05 4308.63 6313.05" stroke="#263238" stroke-miterlimit="10" stroke-linecap="round"/>
<path d="M5662.44 5504.16L5585.65 5255.27" stroke="#263238" stroke-miterlimit="10" stroke-linecap="round"/>
<path d="M6595.43 4803.6C6595.43 4803.6 6859.58 4817.99 6953.17 4870.62C7046.76 4923.24 7064.41 5233.5 7064.41 5233.5L7427.81 5949.31C7427.81 5949.31 8108.31 6115.24 8190.59 6127.75C8272.86 6140.26 8329.43 6117.64 8402.96 6137.86C8476.5 6158.09 8480.27 6169.57 8535.12 6230.43C8589.98 6291.28 8614.66 6350.41 8593.23 6361.38C8571.81 6372.35 8520.38 6327.1 8504.61 6309.96C8485.98 6292.25 8466.04 6275.98 8444.96 6261.28C8444.96 6261.28 8484.56 6388.47 8502.04 6449.83C8538.89 6576.68 8564.61 6349.73 8596.66 6374.41C8638.48 6406.64 8609.17 6592.79 8502.55 6570.85C8395.94 6548.91 8343.31 6551.31 8300.63 6495.26C8257.95 6439.2 8165.22 6301.9 8165.22 6301.9C8165.22 6301.9 7784.51 6275.51 7565.28 6252.02C7346.04 6228.54 7153.89 6127.58 7081.9 6057.64C7017.62 5995.42 6800.27 5533.47 6800.27 5533.47L6601.94 5005.18C6601.94 5005.18 6547.78 4895.47 6595.43 4803.6Z" fill="#787878" stroke="#263238" stroke-miterlimit="10" stroke-linecap="round"/>
<path d="M8488.5 6514.46C8500.17 6524.5 8512.48 6533.78 8525.35 6542.22C8545.01 6551.32 8566.03 6557.11 8587.58 6559.36C8642.09 6567.08 8661.63 6589.88 8648.43 6604.45C8635.23 6619.02 8611.4 6616.27 8561.18 6616.27C8523.59 6614.86 8487.24 6602.46 8456.62 6580.62C8440.99 6569.66 8426.83 6556.75 8414.45 6542.22" fill="#787878"/>
<path d="M8488.5 6514.46C8500.17 6524.5 8512.48 6533.78 8525.35 6542.22C8545.01 6551.32 8566.03 6557.11 8587.58 6559.36C8642.09 6567.08 8661.63 6589.88 8648.43 6604.45C8635.23 6619.02 8611.4 6616.27 8561.18 6616.27C8523.59 6614.86 8487.24 6602.46 8456.62 6580.62C8440.99 6569.66 8426.83 6556.75 8414.45 6542.22" stroke="#263238" stroke-miterlimit="10" stroke-linecap="round"/>
<path d="M8433.65 6518.23C8444.03 6529.72 8455.14 6540.54 8466.9 6550.62C8484.28 6563.7 8504.68 6572.19 8526.21 6575.31C8553.81 6578.91 8595.8 6614.9 8580.72 6627.76C8565.64 6640.61 8542.5 6634.79 8492.61 6627.76C8455.57 6621.53 8421.17 6604.54 8393.71 6578.91C8379.53 6566.06 8367.09 6551.42 8356.69 6535.37" fill="#787878"/>
<path d="M8433.65 6518.23C8444.03 6529.72 8455.14 6540.54 8466.9 6550.62C8484.28 6563.7 8504.68 6572.19 8526.21 6575.31C8553.81 6578.91 8595.8 6614.9 8580.72 6627.76C8565.64 6640.61 8542.5 6634.79 8492.61 6627.76C8455.57 6621.53 8421.17 6604.54 8393.71 6578.91C8379.53 6566.06 8367.09 6551.42 8356.69 6535.37" stroke="#263238" stroke-miterlimit="10" stroke-linecap="round"/>
<path d="M8272.01 6211.74C8272.01 6211.74 8317.95 6222.2 8349.49 6294.19C8381.03 6366.18 8359.6 6504.17 8380 6513.25C8400.4 6522.34 8419.76 6516.85 8444.1 6510.17C8468.45 6503.48 8507.53 6498 8498.61 6527.31C8478.73 6591.08 8368.68 6566.39 8368.68 6566.39C8368.68 6566.39 8351.54 6563.99 8310.92 6505.71C8270.29 6447.43 8177.39 6313.05 8177.39 6313.05" fill="#787878"/>
<path d="M8272.01 6211.74C8272.01 6211.74 8317.95 6222.2 8349.49 6294.19C8381.03 6366.18 8359.6 6504.17 8380 6513.25C8400.4 6522.34 8419.76 6516.85 8444.1 6510.17C8468.45 6503.48 8507.53 6498 8498.61 6527.31C8478.73 6591.08 8368.68 6566.39 8368.68 6566.39C8368.68 6566.39 8351.54 6563.99 8310.92 6505.71C8270.29 6447.43 8177.39 6313.05 8177.39 6313.05" stroke="#263238" stroke-miterlimit="10" stroke-linecap="round"/>
<path d="M6823.58 5504.16L6900.37 5255.27" stroke="#263238" stroke-miterlimit="10" stroke-linecap="round"/>
<path d="M7141.21 3957.17C7147.21 3974.31 7113.95 4003.79 7117.38 4021.62C7120.81 4039.44 7162.98 4049.04 7164.86 4067.21C7166.75 4085.38 7126.98 4111.27 7126.12 4129.95C7125.26 4148.63 7164.35 4164.23 7161.43 4182.74C7158.52 4201.26 7113.09 4222.68 7107.44 4241.54C7101.78 4260.39 7136.06 4281.48 7128.18 4300.5C7120.29 4319.53 7070.58 4334.79 7059.61 4352.96C7048.64 4371.13 7076.75 4397.52 7063.73 4415.86C7050.7 4434.2 6998.25 4442.26 6982.65 4459.57C6967.05 4476.89 6986.42 4507.06 6968.59 4523.85C6950.77 4540.65 6897.63 4540.99 6877.4 4556.25C6857.18 4571.51 6867.12 4604.93 6844.66 4619.16C6822.21 4633.39 6771.13 4625.84 6746.96 4638.18C6722.79 4650.53 6721.93 4685.49 6695.54 4696.46C6669.14 4707.44 6622.34 4692.01 6595.09 4700.58C6567.83 4709.15 6556.18 4743.95 6526.52 4750.8C6496.87 4757.66 6457.96 4735.2 6427.96 4739.66C6397.97 4744.12 6376.54 4776.51 6346.03 4778.74C6315.52 4780.97 6283.81 4752.86 6253.81 4752.86C6223.81 4752.86 6191.41 4781.14 6161.59 4778.74C6131.76 4776.34 6108.45 4744.46 6079.65 4739.66C6050.86 4734.86 6009.55 4756.8 5980.92 4750.8C5952.3 4744.8 5940.3 4709.32 5912.36 4700.58C5884.42 4691.84 5837.96 4707.26 5811.91 4696.46C5785.85 4685.67 5785 4650.53 5760.49 4638.18C5735.97 4625.84 5685.07 4633.56 5662.78 4619.16C5640.5 4604.76 5650.1 4571.51 5629.87 4556.25C5609.64 4540.99 5556.85 4540.65 5538.85 4523.85C5520.85 4507.06 5540.39 4476.89 5524.79 4459.4C5509.2 4441.92 5456.23 4434.38 5443.72 4415.86C5431.2 4397.35 5458.46 4371.64 5447.66 4352.96C5436.86 4334.27 5387.32 4319.7 5379.1 4300.5C5370.87 4281.31 5405.49 4260.91 5399.84 4241.54C5394.18 4222.17 5348.41 4202.11 5345.84 4182.74C5343.27 4163.38 5382.18 4148.46 5381.15 4129.95C5380.12 4111.44 5340.53 4085.9 5342.41 4067.21C5344.3 4048.53 5386.29 4039.79 5389.89 4021.62C5393.49 4003.45 5360.07 3974.82 5366.07 3957.17C5372.07 3939.51 5415.43 3936.08 5422.81 3919.28C5430.18 3902.49 5403.61 3870.78 5413.03 3855.01C5422.46 3839.24 5465.66 3840.44 5476.29 3825.01C5486.91 3809.58 5467.37 3776.33 5479.71 3762.1C5492.06 3747.87 5533.54 3754.04 5546.74 3740.33C5559.93 3726.62 5546.74 3692.34 5561.82 3679.82C5576.9 3667.31 5615.47 3677.77 5630.38 3665.77C5645.3 3653.77 5638.96 3619.14 5655.07 3608.52C5671.18 3597.89 5706.49 3611.94 5723.63 3601.83C5740.77 3591.72 5739.23 3557.09 5756.37 3548.18C5773.51 3539.27 5806.25 3557.09 5823.74 3548.18C5841.22 3539.27 5845.33 3505.67 5862.99 3498.64C5880.65 3491.61 5909.96 3512.53 5928.13 3506.35C5946.3 3500.18 5954.52 3466.59 5972.69 3461.62C5990.86 3456.65 6016.4 3480.47 6034.92 3476.19C6053.43 3471.9 6065.6 3439.68 6083.77 3436.59C6101.94 3433.5 6124.39 3460.24 6143.08 3458.19C6161.76 3456.13 6177.36 3425.28 6195.7 3423.91C6214.04 3422.53 6232.9 3451.85 6251.75 3451.85C6270.61 3451.85 6289.8 3422.88 6307.8 3423.91C6325.8 3424.93 6342.09 3455.79 6360.43 3458.19C6378.77 3460.59 6401.74 3433.68 6419.73 3436.59C6437.73 3439.5 6450.25 3472.07 6468.59 3476.19C6486.93 3480.3 6512.98 3456.47 6530.81 3461.62C6548.64 3466.76 6557.38 3500.18 6575.38 3506.35C6593.37 3512.53 6623.03 3491.61 6640.51 3498.64C6658 3505.67 6662.28 3540.12 6679.77 3548.18C6697.25 3556.24 6730.16 3538.75 6747.13 3548.18C6764.1 3557.61 6763.41 3591.89 6779.87 3602C6796.33 3612.12 6832.66 3597.89 6848.43 3608.52C6864.2 3619.14 6858.03 3653.94 6873.29 3665.77C6888.55 3677.59 6927.63 3667.48 6941.85 3679.82C6956.08 3692.16 6943.74 3726.79 6956.94 3740.33C6970.14 3753.87 7011.79 3748.04 7023.96 3762.1C7036.13 3776.16 7016.93 3809.75 7027.39 3825.18C7037.84 3840.61 7081.04 3839.06 7090.64 3855.01C7100.24 3870.95 7073.5 3902.32 7080.87 3919.28C7088.24 3936.25 7135.21 3939.85 7141.21 3957.17Z" fill="#263238"/>
<path d="M6130.91 4447.4C6130.91 4447.4 6118.91 4583.5 6062.34 4675.55C6005.78 4767.6 5890.93 4803.6 5890.93 4803.6L5662.61 5504.16L5782.6 5976.57C5782.6 5976.57 5570.39 6301.05 5486.4 6496.8C5402.41 6692.55 5503.54 6915.04 5591.47 7007.09C5679.41 7099.14 5796.31 7223.76 6094.91 7212.79C6510.24 7195.64 6805.58 7234.21 6937.74 7078.06C7069.9 6921.9 7084.13 6627.41 6926.08 6404.92C6829.92 6269.68 6699.31 5977.25 6699.31 5977.25L6829.41 5490.27L6630.74 4803.08C6630.74 4803.08 6510.75 4796.23 6439.1 4708.29C6367.45 4620.36 6383.05 4460.09 6383.05 4460.09L6130.91 4447.4Z" fill="#787878" stroke="#263238" stroke-miterlimit="10" stroke-linecap="round"/>
<path d="M6265.29 4633.21C6309.49 4633.17 6353.22 4624.19 6393.85 4606.82C6383.39 4558.42 6379.98 4508.77 6383.74 4459.4L6131.59 4447.4C6126.39 4495.54 6116.34 4543.04 6101.6 4589.16C6151.35 4617.96 6207.81 4633.16 6265.29 4633.21Z" fill="#263238"/>
<path d="M6829.41 5489.59L6630.74 4802.4C6610.82 4801.05 6591.07 4797.78 6571.78 4792.63C6594.75 4952.04 6567.15 5031.75 6567.15 5031.75C6563.24 5066.69 6551.02 5100.18 6531.52 5129.44C6512.02 5158.69 6485.8 5182.85 6455.05 5199.9C6347.06 5264.01 6142.91 5276.01 6014.86 5171.96C5918.18 5093.45 5935.33 4878.33 5949.72 4777.71C5930.9 4788.22 5911.17 4797 5890.76 4803.94L5662.44 5504.5L5782.43 5976.91H6699.14L6829.41 5489.59Z" fill="#E76F51" stroke="#263238" stroke-miterlimit="10" stroke-linecap="round"/>
<path d="M6578.29 4089.84H6673.08C6673.08 4089.84 6657.31 4200.4 6621.66 4244.11C6586 4287.82 6574.35 4287.65 6574.35 4287.65L6578.29 4089.84Z" fill="#787878" stroke="#263238" stroke-miterlimit="10" stroke-linecap="round"/>
<path d="M5950.75 4089.84H5856.13C5856.13 4089.84 5871.9 4200.4 5907.56 4244.11C5943.21 4287.82 5954.87 4287.65 5954.87 4287.65L5950.75 4089.84Z" fill="#787878" stroke="#263238" stroke-miterlimit="10" stroke-linecap="round"/>
<path d="M6265.29 4542.88C6179.92 4542.88 6098.04 4508.96 6037.67 4448.59C5977.3 4388.22 5943.38 4306.34 5943.38 4220.97V3726.28C5943.38 3694.45 5956.02 3663.93 5978.53 3641.43C6001.03 3618.93 6031.55 3606.29 6063.37 3606.29H6467.22C6499.04 3606.29 6529.56 3618.93 6552.06 3641.43C6574.56 3663.93 6587.2 3694.45 6587.2 3726.28V4220.97C6587.2 4263.24 6578.88 4305.1 6562.7 4344.16C6546.52 4383.21 6522.81 4418.7 6492.92 4448.59C6463.03 4478.49 6427.54 4502.2 6388.48 4518.38C6349.43 4534.55 6307.57 4542.88 6265.29 4542.88V4542.88Z" fill="#787878" stroke="#263238" stroke-miterlimit="10" stroke-linecap="round"/>
<path d="M6025.32 4001.73C6025.32 4001.73 6089.08 4051.44 6174.27 4001.73" stroke="#263238" stroke-miterlimit="10" stroke-linecap="round"/>
<path d="M6358.71 4001.73C6380.79 4016.38 6406.7 4024.19 6433.19 4024.19C6459.69 4024.19 6485.59 4016.38 6507.67 4001.73" stroke="#263238" stroke-miterlimit="10" stroke-linecap="round"/>
<path d="M6011.26 3906.09C6011.26 3906.09 6050.34 3838.72 6170.84 3849.35" stroke="#263238" stroke-width="2" stroke-miterlimit="10" stroke-linecap="round"/>
<path d="M6333.86 3849.86C6366.38 3836.24 6402.65 3834.46 6436.35 3844.83C6470.05 3855.2 6499.05 3877.06 6518.3 3906.6" stroke="#263238" stroke-width="2" stroke-miterlimit="10" stroke-linecap="round"/>
<path d="M5486.4 6496.8C5402.41 6693.07 5503.54 6915.04 5591.47 7007.09C5679.41 7099.14 5796.31 7223.76 6094.91 7212.79C6510.24 7195.64 6805.58 7234.21 6937.74 7078.06C7069.9 6921.9 7084.13 6627.42 6926.08 6404.92C6890.26 6352.31 6857.63 6297.59 6828.38 6241.05H5620.44C5571.04 6323.74 5526.28 6409.12 5486.4 6496.8V6496.8Z" fill="white" stroke="#263238" stroke-miterlimit="10" stroke-linecap="round"/>
<path d="M6141.71 6893.96C5930.87 6675.41 5548.45 6566.22 5361.27 6535.02C5174.09 6503.83 4829.89 6315.45 4829.89 6315.45C4829.89 6315.45 4627.11 6308.59 4642.71 6550.62C4658.31 6792.66 5243.68 7073.43 5469.94 7198.39C5571.82 7255.64 5685.94 7287.63 5802.73 7291.69C5919.52 7295.75 6035.59 7271.75 6141.19 7221.7" fill="white"/>
<path d="M6141.71 6893.96C5930.87 6675.41 5548.45 6566.22 5361.27 6535.02C5174.09 6503.83 4829.89 6315.45 4829.89 6315.45C4829.89 6315.45 4627.11 6308.59 4642.71 6550.62C4658.31 6792.66 5243.68 7073.43 5469.94 7198.39C5571.82 7255.64 5685.94 7287.63 5802.73 7291.69C5919.52 7295.75 6035.59 7271.75 6141.19 7221.7" stroke="#263238" stroke-miterlimit="10" stroke-linecap="round"/>
<path d="M6273.52 6901.84C6484.19 6683.29 6866.61 6573.93 7053.96 6542.74C7241.31 6511.54 7532.71 6352.47 7532.71 6352.47C7532.71 6352.47 7787.6 6317.16 7772.69 6559.02C7757.77 6800.88 7171.72 7082 6945.28 7206.79C6843.45 7264.06 6729.37 7296.09 6612.6 7300.18C6495.84 7304.26 6379.79 7280.29 6274.21 7230.27" fill="white"/>
<path d="M6273.52 6901.84C6484.19 6683.29 6866.61 6573.93 7053.96 6542.74C7241.31 6511.54 7532.71 6352.47 7532.71 6352.47C7532.71 6352.47 7787.6 6317.16 7772.69 6559.02C7757.77 6800.88 7171.72 7082 6945.28 7206.79C6843.45 7264.06 6729.37 7296.09 6612.6 7300.18C6495.84 7304.26 6379.79 7280.29 6274.21 7230.27" stroke="#263238" stroke-miterlimit="10" stroke-linecap="round"/>
<path d="M7142.41 7098.97C7142.41 7098.97 7164 7071.71 7135.38 7030.4C7106.75 6989.09 7045.39 7049.6 6994.82 7065.88C6944.25 7082.17 6746.1 7126.39 6652 7147.13C6571.09 7164.28 6446.3 7165.48 6408.42 7171.65C6422.16 7229.38 6418.64 7289.88 6398.31 7345.63L6416.99 7344.77C6581.55 7337.4 6675.82 7335.86 6726.73 7330.54C6819.81 7320.6 6939.8 7362.6 7035.27 7326.77C7130.75 7290.95 7196.23 7198.56 7182.86 7157.25C7175.88 7134.03 7161.72 7113.62 7142.41 7098.97Z" fill="#787878" stroke="#263238" stroke-miterlimit="10" stroke-linecap="round"/>
<path d="M6402.42 7172.33L6407.56 7171.47L6402.42 7172.33Z" fill="white" stroke="#263238" stroke-miterlimit="10" stroke-linecap="round"/>
<path d="M6397.79 7173.19H6400.19H6397.79Z" fill="white" stroke="#263238" stroke-miterlimit="10" stroke-linecap="round"/>
<path d="M7142.41 7098.97C7117.22 7112.28 7089.99 7121.32 7061.84 7125.71" stroke="#263238" stroke-miterlimit="10" stroke-linecap="round"/>
<path d="M7181.66 7157.08C7147.15 7171.59 7111.56 7183.39 7075.21 7192.39" stroke="#263238" stroke-miterlimit="10" stroke-linecap="round"/>
<path d="M7070.93 7238.67C7100.18 7244.13 7130.43 7239.42 7156.63 7225.3" stroke="#263238" stroke-miterlimit="10" stroke-linecap="round"/>
<path d="M7044.19 7280.15C7048.64 7278.61 7066.98 7289.23 7124.24 7267.29" stroke="#263238" stroke-miterlimit="10" stroke-linecap="round"/>
<path d="M6397.79 7345.46C6418.13 7289.7 6421.64 7229.21 6407.91 7171.48L6397.79 7173.19C6397.79 7173.19 6034.92 7095.88 5726.55 6908.02C5418.18 6720.15 5028.05 6430.98 4830.41 6315.45C4632.77 6199.91 4445.07 6373.21 4464.27 6556.28C4483.47 6739.35 4632.94 6835.68 4902.74 6946.58C5172.55 7057.49 5663.98 7230.78 5924.18 7283.75C6058.23 7311.18 6248.15 7352.66 6397.79 7345.46Z" fill="white" stroke="#263238" stroke-miterlimit="10" stroke-linecap="round"/>
<path d="M5858.02 7334.83C5836.15 7279.5 5831.54 7218.84 5844.82 7160.85L5855.45 7162.39C5855.45 7162.39 6229.98 7083.88 6549.84 6896.02C6869.69 6708.15 7377.41 6425.15 7582.25 6309.45C7787.08 6193.74 7982.32 6367.38 7962.27 6550.45C7942.21 6733.52 7787.26 6829.85 7507.34 6940.58C7227.43 7051.32 6614.8 7218.79 6344.83 7271.75C6205.81 7299.18 6013.49 7341.52 5858.02 7334.83Z" fill="white" stroke="#263238" stroke-miterlimit="10" stroke-linecap="round"/>
<path d="M5844.82 7160.85C5844.82 7160.85 5484.86 7115.94 5372.07 7084.4C5259.28 7052.86 5182.49 6981.55 5145.29 7001.61C5108.09 7021.66 5138.95 7072.06 5138.95 7072.06C5138.95 7072.06 5113.58 7134.45 5138.95 7174.9C5164.32 7215.36 5200.83 7255.47 5327.5 7321.63C5454.17 7387.8 5603.64 7363.8 5682.49 7359.51C5741.36 7355.57 5799.85 7347.32 5857.5 7334.83C5857.5 7334.83 5827.51 7274.32 5844.82 7160.85Z" fill="#787878" stroke="#263238" stroke-miterlimit="10" stroke-linecap="round"/>
<path d="M5138.95 7072.4C5148.31 7068.66 5158.57 7067.75 5168.44 7069.79C5178.32 7071.84 5187.37 7076.74 5194.49 7083.88C5211.17 7100.01 5231.18 7112.3 5253.11 7119.88" stroke="#263238" stroke-miterlimit="10" stroke-linecap="round"/>
<path d="M5128.15 7147.13C5135.74 7142.92 5144.23 7140.59 5152.9 7140.32C5161.58 7140.05 5170.19 7141.86 5178.03 7145.59C5195.98 7154.61 5214.98 7161.35 5234.6 7165.65" stroke="#263238" stroke-miterlimit="10" stroke-linecap="round"/>
<path d="M5176.14 7220.33C5176.14 7220.33 5187.29 7203.19 5200.31 7205.07C5213.34 7206.96 5266.65 7225.98 5281.05 7227.87" stroke="#263238" stroke-miterlimit="10" stroke-linecap="round"/>
<path d="M5245.57 7274.15C5253.86 7266.76 5264.32 7262.25 5275.39 7261.29C5290.8 7262.4 5306.13 7264.35 5321.33 7267.12" stroke="#263238" stroke-miterlimit="10" stroke-linecap="round"/>
<path d="M5903.1 3812.5C5922.81 3816.78 5916.98 3839.58 5942.18 3835.12C5953.5 3833.24 5961.55 3801.87 5976.46 3798.95C5988.46 3796.73 6007.49 3822.95 6021.72 3819.87C6035.94 3816.78 6040.92 3785.58 6054.63 3782.33C6068.34 3779.07 6087.2 3804.95 6100.74 3801.52C6114.28 3798.1 6119.08 3767.24 6132.28 3762.96C6145.48 3758.67 6166.56 3784.21 6179.07 3780.1C6191.59 3775.98 6196.21 3744.27 6209.07 3740.33C6221.93 3736.39 6243.35 3760.21 6256.55 3755.76C6269.75 3751.3 6272.15 3719.42 6285.01 3714.79C6297.86 3710.16 6320.49 3732.96 6333 3728.16C6345.51 3723.36 6347.06 3690.96 6359.4 3685.65C6371.74 3680.34 6395.91 3702.79 6408.25 3696.45C6420.59 3690.11 6420.08 3658.57 6432.08 3652.57C6444.08 3646.57 6469.62 3666.62 6481.61 3660.28C6493.61 3653.94 6490.87 3621.71 6502.36 3614.86C6513.84 3608 6540.92 3626.17 6552.24 3618.8C6563.55 3611.43 6558.24 3579.72 6569.38 3571.83C6580.52 3563.95 6611.37 3576.8 6621.83 3568.41C6626.11 3562.75 6595.09 3555.89 6594.23 3546.81C6594.23 3542.87 6622.51 3534.81 6621.83 3529.67C6621.14 3524.52 6591.49 3524.52 6590.8 3519.38C6590.12 3514.24 6618.57 3505.67 6617.72 3500.87C6616.86 3496.07 6587.2 3496.58 6586.35 3491.78C6585.49 3486.99 6613.43 3476.87 6612.4 3472.07C6611.37 3467.27 6581.72 3469.16 6580.52 3464.36C6579.32 3459.56 6606.92 3448.07 6605.72 3443.45C6604.52 3438.82 6574.86 3442.08 6573.49 3437.28C6572.12 3432.48 6598.86 3420.13 6597.49 3414.99C6596.12 3409.85 6566.63 3414.99 6564.92 3410.88C6563.21 3406.76 6589.09 3391.51 6587.38 3387.05C6585.66 3382.6 6556.69 3389.62 6554.64 3385.34C6552.58 3381.05 6577.09 3363.91 6575.03 3359.63C6572.98 3355.34 6544.69 3365.11 6542.29 3361C6539.89 3356.88 6562.35 3337.17 6559.44 3333.23C6556.52 3329.29 6530.12 3342.66 6527.21 3338.89C6524.3 3335.11 6543.49 3312.32 6540.24 3308.89C6536.98 3305.46 6513.15 3323.12 6509.55 3320.03C6501.67 3313.17 6504.93 3282.15 6490.36 3276.66C6479.39 3272.55 6458.3 3296.89 6444.42 3293.8C6430.53 3290.72 6425.22 3259.52 6411.68 3257.81C6398.14 3256.09 6382.88 3283.69 6369.51 3282.32C6356.14 3280.95 6346.03 3250.95 6332.49 3250.44C6318.95 3249.92 6306.09 3278.89 6292.89 3278.89C6279.69 3278.89 6266.66 3249.58 6253.47 3249.92C6240.27 3250.27 6229.13 3280.43 6215.93 3281.46C6202.73 3282.49 6187.47 3254.21 6174.45 3255.58C6161.42 3256.95 6152.33 3287.8 6140.16 3289.86C6127.99 3291.92 6109.65 3264.84 6096.8 3267.24C6083.94 3269.64 6077.25 3301.52 6064.74 3304.09C6052.23 3306.66 6031.83 3281.98 6019.49 3285.58C6007.15 3289.18 6003.38 3321.06 5991.21 3325.34C5979.04 3329.63 5955.9 3307 5944.07 3311.97C5932.24 3316.94 5932.58 3349.17 5921.27 3355.17C5909.96 3361.17 5883.56 3342.31 5872.76 3349.17C5861.96 3356.03 5868.13 3387.74 5858.19 3395.79C5848.25 3403.85 5818.42 3391.34 5809.68 3400.77C5803.85 3406.94 5820.82 3432.13 5816.02 3438.65C5811.22 3445.16 5781.74 3435.73 5777.8 3442.76C5773.86 3449.79 5795.8 3470.7 5792.71 3478.24C5789.63 3485.79 5758.43 3483.73 5756.54 3491.44C5754.66 3499.16 5781.23 3513.9 5780.03 3521.95C5778.83 3530.01 5748.66 3535.84 5748.49 3543.89C5748.32 3551.95 5777.8 3559.83 5778.48 3568.06C5779.17 3576.29 5751.06 3588.29 5752.43 3596.35C5753.8 3604.4 5784.48 3606.12 5786.71 3613.49C5788.94 3620.86 5763.4 3638 5766.14 3645.88C5768.89 3653.77 5799.4 3650.68 5802.65 3658.23C5805.91 3665.77 5782.77 3685.82 5785.51 3692.51C5788.26 3699.19 5819.79 3693.54 5823.22 3700.56C5826.65 3707.59 5806.08 3730.22 5810.71 3736.9C5815.34 3743.59 5844.99 3734.67 5848.93 3741.36C5852.88 3748.04 5835.05 3772.39 5839.85 3778.73C5844.65 3785.07 5874.13 3774.1 5878.25 3779.93C5882.36 3785.76 5867.28 3812.5 5871.9 3817.81C5882.36 3830.32 5890.93 3809.92 5903.1 3812.5Z" fill="#263238"/>
</svg>
