<svg width="15" height="18" viewBox="0 0 15 18" fill="none" xmlns="http://www.w3.org/2000/svg">
<path fill-rule="evenodd" clip-rule="evenodd" d="M6.33834 11.7417C6.32308 11.7936 6.30934 11.8368 6.29764 11.8806C5.63627 14.4706 5.56302 15.046 4.88384 16.2497C4.55927 16.821 4.1945 17.3628 3.79056 17.8817C3.74478 17.9402 3.70256 18.0155 3.61149 17.9972C3.51178 17.9758 3.50413 17.8863 3.49294 17.8064C3.38407 17.0194 3.32456 16.2298 3.35051 15.4357C3.38459 14.4004 3.51277 14.0453 4.8472 8.43284C4.86704 8.34737 4.84517 8.27666 4.81668 8.19882C4.49719 7.33752 4.43412 6.46299 4.71291 5.57676C5.31678 3.66236 7.48707 3.51584 7.86659 5.09549C8.1001 6.07227 7.482 7.35023 7.00734 9.2397C6.61408 10.799 8.4491 11.907 10.0181 10.769C11.4639 9.71996 12.0256 7.20423 11.9187 5.42159C11.7086 1.86752 7.81166 1.09932 5.33815 2.24399C2.50395 3.55451 1.85936 7.06839 3.13936 8.67398C3.30114 8.87849 3.42631 9.00314 3.37289 9.21071C3.29048 9.53172 3.21773 9.85579 3.1292 10.1758C3.06307 10.4134 2.86361 10.5004 2.62298 10.4022C2.15137 10.2114 1.75813 9.91125 1.43915 9.51544C0.352476 8.16982 0.0416167 5.50706 1.47831 3.25384C3.07067 0.756423 6.0326 -0.253431 8.73605 0.0533407C11.9656 0.420144 14.0066 2.62707 14.3892 5.13008C14.5632 6.27069 14.438 9.0825 12.8375 11.0702C10.9954 13.3539 8.01006 13.505 6.6329 12.1034C6.52708 11.9961 6.44213 11.8699 6.33834 11.7417Z" fill="white"/>
</svg>
