<svg width="16" height="18" viewBox="0 0 16 18" fill="none" xmlns="http://www.w3.org/2000/svg">
<path d="M15.8491 7.28289C15.702 7.29686 15.5543 7.30434 15.4062 7.30534C13.7851 7.30534 12.2738 6.48832 11.3859 5.1321V12.5312C11.3859 15.5519 8.93684 18 5.91714 18C2.89644 18 0.448364 15.5519 0.448364 12.5312C0.448364 9.51101 2.89644 7.06293 5.91714 7.06293C6.03087 7.06293 6.1426 7.07291 6.25483 7.07989V9.77487C6.1426 9.7614 6.03236 9.74095 5.91714 9.74095C4.37537 9.74095 3.12588 10.9909 3.12588 12.5317C3.12588 14.0735 4.37537 15.323 5.91714 15.323C7.45892 15.323 8.82013 14.1084 8.82013 12.5666L8.84756 0H11.4258C11.6687 2.31191 13.5327 4.11805 15.8516 4.28764V7.28289" fill="white"/>
</svg>
