<svg width="23" height="18" viewBox="0 0 23 18" fill="none" xmlns="http://www.w3.org/2000/svg">
<path d="M22.4202 2.15762C21.7253 2.47202 20.9576 2.66229 20.2082 2.78795C20.5638 2.72842 21.0863 2.08436 21.2959 1.82389C21.6154 1.42707 21.8804 0.974281 22.0295 0.485381C22.0488 0.447225 22.0636 0.399404 22.0249 0.370406C21.9771 0.351583 21.9461 0.361255 21.9079 0.380079C21.071 0.82828 20.2062 1.15336 19.2854 1.38382C19.2091 1.40265 19.1521 1.38382 19.1042 1.33549C19.0284 1.24951 18.9562 1.16812 18.8753 1.10147C18.4882 0.772318 18.073 0.51387 17.605 0.323092C16.9904 0.0727911 16.3189 -0.0335303 15.657 0.00920395C15.0124 0.0514295 14.3801 0.232542 13.8088 0.531173C13.2359 0.830313 12.7246 1.24697 12.3171 1.7491C11.8964 2.26903 11.5861 2.88207 11.4268 3.53275C11.2742 4.16053 11.2864 4.7812 11.38 5.4156C11.3943 5.52091 11.3846 5.53515 11.2895 5.52091C7.68807 4.9847 4.70277 3.69656 2.27913 0.934605C2.17382 0.814542 2.11685 0.814537 2.03087 0.943757C0.970149 2.53357 1.48447 5.08695 2.80923 6.34202C2.98628 6.5099 3.16741 6.67677 3.36328 6.82939C3.29155 6.84414 2.41039 6.74901 1.62438 6.34202C1.51958 6.27537 1.46618 6.31404 1.45702 6.43308C1.44735 6.60504 1.46209 6.76326 1.48549 6.94946C1.68899 8.56064 2.80518 10.0507 4.33344 10.6327C4.51455 10.7091 4.71551 10.7757 4.91087 10.8093C4.56289 10.8856 4.20423 10.94 3.20557 10.8617C3.08144 10.8383 3.03411 10.9003 3.08143 11.0199C3.83233 13.0645 5.45113 13.6735 6.66448 14.0199C6.82677 14.0484 6.98959 14.0484 7.15238 14.0866C7.14221 14.1013 7.13252 14.1013 7.12286 14.1156C6.72095 14.7286 5.326 15.185 4.67634 15.4119C3.49504 15.825 2.20844 16.0107 0.959984 15.8875C0.760557 15.858 0.718335 15.8606 0.664408 15.8875C0.609464 15.9216 0.656777 15.9694 0.721387 16.0213C0.97474 16.1887 1.23266 16.3368 1.49568 16.4802C2.2883 16.9004 3.115 17.2352 3.97986 17.4738C8.44407 18.7065 13.4725 17.8004 16.8246 14.4702C19.4568 11.8547 20.3797 8.24776 20.3797 4.63671C20.3797 4.49528 20.5465 4.41744 20.6452 4.34266C21.3305 3.82832 21.883 3.21224 22.3938 2.52493C22.5087 2.37027 22.5097 2.23291 22.5097 2.17644C22.5097 2.16677 22.5097 2.15762 22.5097 2.15762C22.5097 2.09962 22.5087 2.11743 22.4202 2.15762Z" fill="white"/>
</svg>
