<svg width="19" height="18" viewBox="0 0 19 18" fill="none" xmlns="http://www.w3.org/2000/svg">
<path d="M5.93199 14.8997L6.23673 15.0813C7.35546 15.7478 8.62835 16.1003 9.91701 16.1003C13.8929 16.1003 17.127 12.8662 17.127 8.89036C17.127 4.91501 13.8929 1.6804 9.91701 1.6804C5.94217 1.6804 2.70704 4.91501 2.70704 8.89036C2.70704 10.2029 3.0718 11.4957 3.76217 12.6286L3.94888 12.9354L3.22849 15.6241L5.93199 14.8997ZM0.851624 18L2.14181 13.1857C1.41125 11.867 1.02716 10.3902 1.02716 8.89036C1.02716 3.98858 5.01472 0 9.91701 0C14.8193 0 18.8079 3.98858 18.8079 8.89036C18.8079 13.7927 14.8193 17.7812 9.91701 17.7812C8.44571 17.7812 6.99221 17.4093 5.69134 16.7042L0.851624 18Z" fill="white"/>
<path fill-rule="evenodd" clip-rule="evenodd" d="M13.2241 10.1271C12.8578 9.90788 12.3821 9.66368 11.9507 9.8397C11.6205 9.97554 11.4094 10.4934 11.1947 10.7575C11.0848 10.8933 10.9536 10.9142 10.7847 10.8465C9.54332 10.3515 8.59197 9.52275 7.90669 8.38112C7.79069 8.20357 7.81153 8.06367 7.95143 7.89934C8.15849 7.65565 8.41847 7.37889 8.47443 7.05024C8.53039 6.7221 8.37626 6.3385 8.24043 6.04546C8.06694 5.67204 7.87311 5.13939 7.49867 4.92775C7.15476 4.73341 6.70146 4.84227 6.39519 5.09156C5.8661 5.52298 5.61069 6.19759 5.61832 6.8671C5.62086 7.05737 5.64426 7.24713 5.68852 7.43028C5.79536 7.87136 5.99887 8.28395 6.22882 8.67518C6.40179 8.97076 6.59003 9.2577 6.79302 9.53344C7.45694 10.4355 8.28316 11.2194 9.2396 11.8055C9.71782 12.098 10.2321 12.355 10.7653 12.531C11.3631 12.7284 11.8958 12.9339 12.5414 12.8113C13.217 12.6831 13.884 12.2649 14.1521 11.6137C14.2314 11.4204 14.2711 11.2057 14.2268 11.0022C14.1348 10.5809 13.565 10.3306 13.2241 10.1271Z" fill="white"/>
</svg>
